<svg width="45" height="44" viewBox="0 0 45 44" fill="none" xmlns="http://www.w3.org/2000/svg">
<path d="M22.8276 43.875C18.5012 43.875 14.2719 42.5921 10.6745 40.1884C7.07722 37.7848 4.27345 34.3683 2.61778 30.3712C0.962115 26.3741 0.528917 21.9757 1.37297 17.7324C2.21702 13.4891 4.30041 9.59132 7.35969 6.53205C10.419 3.47278 14.3167 1.38938 18.56 0.545332C22.8034 -0.29872 27.2017 0.134478 31.1988 1.79015C35.196 3.44581 38.6124 6.24959 41.016 9.84691C43.4197 13.4442 44.7026 17.6735 44.7026 22C44.7026 27.8016 42.398 33.3656 38.2956 37.468C34.1932 41.5703 28.6293 43.875 22.8276 43.875ZM22.8276 3.25001C19.1192 3.25001 15.4941 4.34968 12.4107 6.40996C9.32728 8.47023 6.92405 11.3986 5.50491 14.8247C4.08576 18.2508 3.71445 22.0208 4.43792 25.658C5.1614 29.2951 6.94716 32.636 9.5694 35.2583C12.1916 37.8805 15.5326 39.6663 19.1697 40.3897C22.8069 41.1132 26.5768 40.7419 30.003 39.3228C33.4291 37.9036 36.3574 35.5004 38.4177 32.417C40.478 29.3335 41.5776 25.7084 41.5776 22C41.5776 17.0272 39.6022 12.2581 36.0859 8.74176C32.5696 5.22545 27.8005 3.25001 22.8276 3.25001Z" fill="#766037"/>
<path d="M29.9995 31.375L21.2651 22.6406V7.9375H24.3901V21.3438L32.2026 29.1719L29.9995 31.375Z" fill="#766037"/>
</svg>