<svg width="13" height="23" viewBox="0 0 13 23" fill="none" xmlns="http://www.w3.org/2000/svg">
<path d="M3.80551 23C3.8135 22.9263 3.82845 22.8526 3.82848 22.7789C3.82963 19.4414 3.82996 16.1039 3.82946 12.7663V12.5336H0V8.41814H3.82949C3.82949 8.30069 3.82888 8.21321 3.82958 8.12573C3.83819 7.04836 3.81018 5.96941 3.86476 4.89399C3.93858 3.43928 4.45818 2.14405 5.70557 1.16835C6.54352 0.525775 7.57871 0.137948 8.66777 0.0585774C9.97208 -0.0629018 11.2751 0.0258747 12.5762 0.132003C12.7128 0.143139 12.8498 0.150182 13 0.159998V3.8244C12.8278 3.8244 12.659 3.82223 12.4903 3.82477C11.7399 3.8361 10.9885 3.83121 10.2393 3.86509C9.11196 3.91606 8.55386 4.35596 8.48004 5.38112C8.40825 6.37794 8.46445 7.3825 8.46445 8.41207H12.8642C12.6692 9.79558 12.4786 11.1484 12.285 12.5224H8.47023C8.46341 12.5953 8.45459 12.6455 8.45458 12.6958C8.45397 16.1007 8.45389 19.5056 8.45433 22.9104C8.45433 22.9403 8.45775 22.9701 8.45958 23L3.80551 23Z" fill="white"/>
</svg>