<svg width="26" height="26" viewBox="0 0 26 26" fill="none" xmlns="http://www.w3.org/2000/svg">
<path d="M25.4282 7.73829V18.1201C25.4129 18.1907 25.3916 18.2606 25.3834 18.3321C25.3309 18.7907 25.3051 19.2538 25.2262 19.7077C25.0361 20.9326 24.5119 22.0814 23.7113 23.0277C22.3719 24.5825 20.6121 25.2306 18.6236 25.3799C18.0822 25.4205 17.5396 25.447 16.9975 25.48H8.95677C8.82835 25.4653 8.70011 25.4489 8.57149 25.4362C7.70957 25.3512 6.82863 25.3526 5.98905 25.1669C3.18215 24.5459 1.45548 22.7958 0.817076 19.9867C0.547029 18.7985 0.544343 17.5854 0.534159 16.3777C0.515255 14.1362 0.515306 11.8946 0.534315 9.65285C0.544894 8.42882 0.566373 7.20223 0.820963 5.99483C1.4075 3.21317 3.47318 1.23856 6.27357 0.76409C7.43195 0.567827 8.59981 0.546103 9.76704 0.533668C11.6751 0.513342 13.5836 0.519267 15.4919 0.528685C16.9034 0.535652 18.3177 0.526582 19.7154 0.770373C22.7251 1.29534 24.8139 3.4015 25.279 6.53483C25.3383 6.93456 25.3789 7.33707 25.4282 7.73829ZM13.0021 23.271L13.0029 23.2269C13.9043 23.2269 14.8061 23.2447 15.707 23.2226C16.9549 23.1919 18.2108 23.2421 19.4435 22.9937C21.204 22.6389 22.3759 21.6147 22.8875 19.8746C23.1302 19.0492 23.1714 18.1942 23.1795 17.3442C23.2034 14.8265 23.2103 12.3087 23.2003 9.79075C23.1972 8.72047 23.2038 7.64494 22.9901 6.58888C22.6217 4.76779 21.5689 3.57356 19.7444 3.10202C18.7038 2.83307 17.6367 2.83477 16.5762 2.82181C14.5138 2.7966 12.4508 2.8065 10.3881 2.81219C9.15479 2.8156 7.91667 2.79308 6.69743 3.01259C4.824 3.34987 3.58214 4.40345 3.09196 6.28148C2.85579 7.1863 2.83045 8.1134 2.82337 9.03574C2.80302 11.6916 2.80359 14.3476 2.82507 17.0037C2.83308 17.7985 2.8981 18.5917 3.01964 19.3772C3.21332 20.6357 3.82452 21.6641 4.91671 22.3624C5.74571 22.8924 6.68261 23.0967 7.6455 23.1339C9.43014 23.2027 11.2165 23.2277 13.0021 23.271V23.271Z" fill="#EFEFEF"/>
<path d="M19.4127 13.2105C19.3865 14.0581 19.1923 14.8921 18.8414 15.6641C18.4905 16.4361 17.9898 17.1307 17.3684 17.7078C16.747 18.2848 16.0173 18.7328 15.2215 19.0257C14.4257 19.3186 13.5797 19.4507 12.7324 19.4142C11.8908 19.3821 11.0637 19.1839 10.2989 18.8312C9.53405 18.4784 8.84646 17.978 8.27564 17.3586C7.70482 16.7393 7.26202 16.0132 6.9727 15.2222C6.68338 14.4311 6.55324 13.5907 6.58975 12.7492C6.65349 11.0542 7.3873 9.45381 8.63006 8.2994C9.87281 7.145 11.5229 6.53098 13.218 6.59219C14.9165 6.65027 16.5225 7.37969 17.6839 8.62044C18.8452 9.86119 19.4669 11.5119 19.4127 13.2105ZM12.992 17.1505C13.5366 17.1532 14.0763 17.0483 14.5802 16.8418C15.0841 16.6354 15.5423 16.3314 15.9284 15.9474C16.3145 15.5633 16.6209 15.1068 16.83 14.604C17.0392 14.1012 17.147 13.5621 17.1471 13.0175C17.1501 12.4729 17.0456 11.9331 16.8396 11.429C16.6336 10.9249 16.3301 10.4664 15.9466 10.0798C15.5631 9.69321 15.1071 9.38607 14.6046 9.17602C14.1022 8.96596 13.5632 8.85712 13.0187 8.85573C12.4721 8.85165 11.9301 8.956 11.4242 9.16274C10.9182 9.36948 10.4582 9.67451 10.0709 10.0602C9.68358 10.4458 9.37658 10.9045 9.16768 11.4096C8.95877 11.9147 8.85209 12.4562 8.85383 13.0028C8.85149 13.5473 8.95687 14.0869 9.16389 14.5906C9.37091 15.0942 9.67548 15.552 10.0601 15.9375C10.4447 16.323 10.9018 16.6286 11.4049 16.8368C11.9081 17.0449 12.4475 17.1515 12.992 17.1505Z" fill="#EFEFEF"/>
<path d="M19.6528 7.83541C19.4559 7.83645 19.2607 7.79813 19.0788 7.72269C18.8969 7.64726 18.7319 7.53622 18.5935 7.39613C18.4551 7.25603 18.3461 7.08969 18.2729 6.90687C18.1997 6.72406 18.1638 6.52846 18.1672 6.33156C18.1673 6.13457 18.2063 5.93953 18.282 5.75767C18.3577 5.5758 18.4686 5.4107 18.6084 5.27185C18.7481 5.133 18.9139 5.02314 19.0963 4.94858C19.2786 4.87403 19.4739 4.83625 19.6709 4.83743C20.0689 4.8417 20.4491 5.00292 20.7289 5.28606C21.0087 5.56919 21.1653 5.95133 21.1648 6.34936C21.1637 6.54639 21.1236 6.74124 21.0469 6.92272C20.9702 7.1042 20.8584 7.26873 20.7178 7.40683C20.5773 7.54494 20.4109 7.6539 20.2281 7.72745C20.0453 7.801 19.8498 7.83769 19.6528 7.83541Z" fill="#EFEFEF"/>
</svg>
