<svg width="277" height="41" viewBox="0 0 277 41" fill="none" xmlns="http://www.w3.org/2000/svg">
<g clip-path="url(#clip0_419_615)">
<path d="M92.11 17.4699C91.98 18.1199 91.75 18.4499 90.84 19.5899C89.66 21.0599 88.68 21.9699 87.54 22.6899C87.15 22.9499 86.69 23.1099 86.49 23.1099H86.33L86.36 22.5199C86.49 20.9199 88.06 18.4099 89.85 16.9399C90.93 16.0299 91.61 15.8999 91.91 16.0599C92.17 16.2199 92.24 16.7499 92.11 17.4599M99.85 17.1699C99.59 17.0099 99.33 16.9399 99.07 17.0099C98.74 17.1099 98.42 17.3999 98.19 17.8899C97.41 19.3899 94.96 22.2299 93.72 23.0799C93.1 23.4699 93.03 23.4399 92.84 23.2399C92.35 22.7499 92.97 20.5299 95.42 16.6799C95.49 16.5499 96.14 15.4999 96.14 15.2399C96.14 15.0099 96.01 14.7799 95.75 14.6199C95.52 14.4599 95.19 14.3299 94.93 14.4199C94.67 14.5199 94.31 15.0099 94.15 15.2399L93.89 15.5999L93.76 15.3699C93.24 14.4199 92.68 14.1299 91.6 14.1299H91.57C90.82 14.1299 90.43 14.2299 89.84 14.5499C86.41 16.4099 83.44 21.7999 84.58 24.0199C84.87 24.6099 85.36 24.9999 85.98 25.0999C87.16 25.2999 88.72 24.5799 90.42 23.0099L90.65 22.8099C90.68 23.8899 91.27 24.7999 92.15 25.1899C92.41 25.3199 92.67 25.3899 92.93 25.3899C93.94 25.3899 95.12 24.6699 96.49 23.2999C98.19 21.5999 100.31 18.6599 100.31 17.7799C100.31 17.5499 100.08 17.2899 99.85 17.1599V17.1699ZM88.94 17.3299C88.84 17.1299 88.61 16.9099 88.09 16.9099C87.5 16.9099 87.04 17.4699 86.49 18.5399C85.22 21.0499 82.67 23.4099 81.62 23.4099C81.46 23.4099 81.39 23.3399 81.36 23.2799C81.16 22.9199 81.2 22.5899 81.75 21.2199C82.5 19.4899 82.6 18.9999 82.37 18.1799C82.2633 17.8333 82.3067 17.5599 82.5 17.3599C83.32 16.4799 83.84 15.3699 83.81 14.6199C83.78 14.3599 83.68 14.0999 83.52 13.9699C82.96 13.5099 82.02 13.6799 81.1 14.3599C79.96 15.2399 79.34 16.2199 79.34 17.1999C79.34 17.8899 79.41 18.0499 79.99 18.5099C80.28 18.7699 80.48 18.9699 80.48 18.9699C80.48 19.0699 80.25 19.6899 79.89 20.5099C78.91 22.7999 79.07 24.1699 80.44 25.1099C80.77 25.3399 81.13 25.4399 81.55 25.4399C83.08 25.4399 85.14 23.9399 87.07 21.3599C88.51 19.3999 89.26 17.9599 88.93 17.3399L88.94 17.3299ZM58.6 22.5199C58.96 22.5199 59.35 22.2899 59.68 21.9299C59.94 21.6399 60.2 21.1799 60.2 20.9199C60.2 20.2999 61.96 17.3299 62.52 16.3499C63.6 14.5499 67.09 8.60993 67.09 7.98993C67.09 7.72993 66.96 7.46993 66.73 7.29993C66.5 7.13993 66.21 7.06993 65.95 7.16993C65.59 7.26993 64.81 8.60993 64.71 8.73993C64.29 9.51993 62.91 11.8099 61.71 13.8299C59.59 17.3599 58.22 19.9399 57.82 21.0799C57.62 21.5399 57.62 21.7699 57.85 22.0899C58.05 22.3499 58.27 22.4799 58.54 22.5099H58.61L58.6 22.5199ZM77.87 13.3099C77.45 8.17993 74.64 4.25993 70.52 3.01993C69.02 2.55993 66.05 2.42993 63.89 2.68993C57.82 3.46993 52.62 7.25993 52.33 11.1499C52.26 12.0299 52.3 12.2599 52.69 13.1099C53.31 14.3799 54.03 15.1699 55.37 16.0499C56.28 16.6699 56.77 16.8999 57.17 16.7999C57.37 16.7299 57.5 16.5999 57.63 16.4099C57.99 15.7599 57.56 15.2999 56.42 14.5199C55.11 13.5699 54.43 12.6599 54.33 11.6799C54.23 10.6999 54.72 9.68993 55.83 8.50993C58.18 6.05993 62.13 4.58993 66.41 4.55993H66.51C69.32 4.55993 70.95 5.04993 72.52 6.31993C75.16 8.50993 76.41 12.4599 75.65 16.2099C74.74 20.6499 71.99 24.1799 68.11 25.9399C65.24 27.2099 62.17 27.2499 59.91 25.9699C58.38 25.1199 57.07 23.6499 57.07 23.0299C57.07 22.6999 56.81 22.4399 56.42 22.3399C55.96 22.2399 55.34 22.3699 55.11 22.8299C54.82 23.3799 55.01 23.8099 55.86 25.0799C56.94 26.6799 59.58 28.4099 61.54 28.7399C62 28.8399 62.65 28.8699 63.3 28.8699C64.67 28.8699 66.24 28.7099 67.06 28.4799C70.29 27.4399 73.33 25.2099 75.16 22.4999C76.99 19.7899 78.1 15.9999 77.87 13.2899V13.3099Z" fill="black"/>
<path d="M141.32 28.97C140.99 28.9 140.63 29.07 140.08 29.49C139.2 30.18 138.64 30.37 137.66 30.37C137.14 30.37 136.66 30.14 136.22 29.68C135.11 28.54 134.78 27.23 135.27 25.7C135.47 24.98 137.23 21.32 139.06 17.9C141.84 12.64 142.88 9.47997 142.52 7.34997C142.32 6.13997 141.97 5.54997 141.18 5.09997C139.19 3.95997 136.84 5.51997 133.08 10.52L133.05 10.55C133.41 9.20997 133.64 7.86997 133.64 6.88997C133.67 5.12997 133.28 4.20997 132.2 3.65997C130.5 2.77997 128.54 3.85997 125.87 7.11997C125.71 7.31997 125.54 7.50997 125.41 7.67997V7.64997C125.83 6.37997 125.93 4.28997 125.41 3.59997C124.66 2.54997 122.99 2.28997 121.56 2.94997C119.8 3.79997 117.61 5.88997 116.01 8.30997C114.87 10.01 113.3 13.14 113.3 13.89C113.3 14.64 113.76 15.13 114.31 15.13C114.7 15.13 115.19 14.97 115.19 14.05C115.19 13.59 116.07 11.73 117.38 9.80997C119.4 6.76997 121.82 4.61997 123.26 4.58997C123.49 4.58997 123.62 4.61997 123.68 4.68997C123.81 4.81997 123.78 5.27997 123.75 5.69997C123.65 7.09997 122.61 9.87997 120.26 14.91C118.89 17.91 117.13 21.9 116.41 23.76C115.79 25.26 115.72 25.49 116.02 25.95C116.22 26.28 116.58 26.44 116.97 26.37C117.46 26.27 117.88 25.81 118.01 25.23C118.11 24.81 120.07 20.33 121.01 18.44C124.63 11.19 129.5 5.37997 131.07 5.37997C131.36 5.37997 131.59 5.73997 131.69 6.32997C131.95 8.34997 129.83 14.79 126.5 22C125.85 23.44 125.1 25.1 125.03 25.33C124.96 25.56 125.06 25.85 125.26 26.08C125.46 26.37 125.75 26.54 126.04 26.54C126.66 26.54 126.95 26.02 127.35 25.01C127.87 23.67 130.45 18.54 131.59 16.55C134.53 11.42 138.19 7.04997 139.72 6.84997C140.24 6.77997 140.47 6.84997 140.6 7.75997C140.83 9.48997 139.91 11.91 136.45 18.6C133.38 24.58 133.02 25.46 133.02 27.02C133.02 28.91 134.33 31.2 135.86 31.98C136.41 32.27 137.07 32.44 137.79 32.44C138.28 32.44 138.8 32.34 139.29 32.21C140.24 31.92 141.58 31 141.9 30.38C142.13 29.96 142.13 29.79 141.87 29.4C141.71 29.17 141.51 29.01 141.31 28.98" fill="black"/>
<path d="M146.64 17.4699C146.51 18.1199 146.28 18.4499 145.37 19.5899C144.19 21.0599 143.21 21.9699 142.07 22.6899C141.68 22.9499 141.22 23.1099 141.02 23.1099H140.86L140.89 22.5199C141.02 20.9199 142.59 18.4099 144.38 16.9399C145.46 16.0299 146.14 15.8999 146.44 16.0599C146.7 16.2199 146.77 16.7499 146.64 17.4599M154.38 17.1699C154.12 17.0099 153.86 16.9399 153.6 17.0099C153.27 17.1099 152.95 17.3999 152.72 17.8899C151.94 19.3899 149.49 22.2299 148.25 23.0799C147.63 23.4699 147.56 23.4399 147.37 23.2399C146.88 22.7499 147.5 20.5299 149.95 16.6799C150.02 16.5499 150.67 15.4999 150.67 15.2399C150.67 15.0099 150.54 14.7799 150.28 14.6199C150.05 14.4599 149.72 14.3299 149.46 14.4199C149.2 14.5199 148.84 15.0099 148.68 15.2399L148.42 15.5999L148.29 15.3699C147.77 14.4199 147.21 14.1299 146.13 14.1299H146.1C145.35 14.1299 144.96 14.2299 144.37 14.5499C140.94 16.4099 137.97 21.7999 139.11 24.0199C139.4 24.6099 139.89 24.9999 140.51 25.0999C141.69 25.2999 143.25 24.5799 144.95 23.0099L145.18 22.8099C145.21 23.8899 145.8 24.7999 146.68 25.1899C146.94 25.3199 147.2 25.3899 147.46 25.3899C148.47 25.3899 149.65 24.6699 151.02 23.2999C152.72 21.5999 154.84 18.6599 154.84 17.7799C154.84 17.5499 154.61 17.2899 154.38 17.1599V17.1699Z" fill="black"/>
<path d="M162.7 17.34C162.6 17.14 162.37 16.92 161.85 16.92C161.26 16.92 160.8 17.48 160.25 18.55C158.98 21.06 156.43 23.42 155.38 23.42C155.22 23.42 155.15 23.35 155.12 23.29C154.92 22.93 154.96 22.6 155.51 21.23C156.26 19.5 156.36 19.01 156.13 18.19C156.023 17.8433 156.067 17.57 156.26 17.37C157.08 16.49 157.6 15.38 157.57 14.63C157.54 14.37 157.44 14.11 157.28 13.98C156.72 13.52 155.78 13.69 154.86 14.37C153.72 15.25 153.1 16.23 153.1 17.21C153.1 17.9 153.17 18.06 153.75 18.52C154.04 18.78 154.24 18.98 154.24 18.98C154.24 19.08 154.01 19.7 153.65 20.52C152.67 22.81 152.83 24.18 154.2 25.12C154.53 25.35 154.89 25.45 155.31 25.45C156.84 25.45 158.9 23.95 160.83 21.37C162.27 19.41 163.02 17.97 162.69 17.35" fill="black"/>
<path d="M172.42 17.67C172.22 17.15 171.67 16.85 171.08 16.98C170.75 17.08 169.55 18.19 168.96 18.74C165.53 22.04 163.28 23.54 162.1 23.31C161.54 23.21 161.19 22.43 161.28 21.48C161.41 20.21 162.46 18.35 163.73 17.01C165.1 15.64 166.05 15.21 166.34 15.38C166.5 15.48 166.54 15.84 166.41 16.39C166.25 16.95 166.28 17.34 166.44 17.57C166.57 17.77 166.77 17.86 167.06 17.9C167.71 18 167.91 17.57 168.2 16.72C168.56 15.64 168.4 14.79 167.64 14.08C167.12 13.56 166.92 13.46 166.2 13.46C163.75 13.46 160.32 17.02 159.41 20.51C159.15 21.59 159.15 22.11 159.44 23.09C159.7 24.04 160.55 24.95 161.37 25.21C161.73 25.34 162.02 25.41 162.32 25.41C162.68 25.41 163.07 25.31 163.66 25.12C165.39 24.53 167.64 22.83 171.24 19.37C172.28 18.39 172.55 18.1 172.42 17.67Z" fill="black"/>
<path d="M173.53 16.7899C174.02 16.2999 174.74 15.6499 175.1 15.5499C175.26 15.5199 175.36 15.5199 175.43 15.5199C175.43 15.5499 175.43 15.6499 175.36 15.8499C175.26 16.4399 174.35 17.4499 173.63 17.8099C173.08 18.0699 172.62 18.0999 172.45 18.0699C172.58 17.8699 172.97 17.3799 173.53 16.7999M180.45 16.9299C180.03 16.9299 179.7 17.2599 178.78 18.2999C176.23 21.2399 173.39 23.5199 172.09 23.3899C171.63 23.3199 171.31 23.0599 171.08 22.6099C170.75 22.0199 170.82 21.3399 171.21 20.1899C171.34 19.8299 171.41 19.7699 171.37 19.7299C172.51 20.2199 173.82 19.9899 175.16 19.1099C176.63 18.1299 177.54 16.5999 177.41 15.2899C177.34 14.5399 176.89 13.9199 176.14 13.6199C175.55 13.3599 174.51 13.5199 173.76 13.9799C172.91 14.4699 171.25 16.1999 170.49 17.3399C169.22 19.2299 168.63 21.2599 168.96 22.6299C169.29 23.9699 170.14 24.8799 171.41 25.2799C171.67 25.3499 171.96 25.4099 172.26 25.4099C173.11 25.4099 174.12 25.0799 175.23 24.4299C176.83 23.4799 181.4 18.7499 181.4 17.8699C181.4 17.2499 181.07 16.9199 180.45 16.9199V16.9299Z" fill="black"/>
<path d="M188.48 18.4501C188.41 18.1601 188.19 18.0301 187.99 17.9301C187.27 17.5701 186.72 18.0901 185.87 19.3001C184.69 20.9701 183.13 22.4701 182.02 23.0201C181.37 23.3501 180.94 23.4401 180.75 23.3101C180.55 23.1801 180.46 22.7901 180.46 22.1001C180.49 20.7601 181.11 19.2601 183.04 15.9001C184.87 12.7001 186.57 9.8301 187.09 9.0401C187.35 8.6501 187.64 8.1301 187.71 7.9601C187.81 7.7001 187.78 7.4001 187.64 7.2101C187.48 6.9801 187.22 6.8501 186.89 6.8501C186.4 6.8501 186.17 7.0801 185.35 8.2501C182.97 11.7101 179.24 18.3701 178.75 20.1701C178.42 21.3801 178.36 22.8101 178.62 23.6001C178.85 24.2901 179.63 25.1001 180.25 25.3001C180.45 25.3701 180.67 25.4001 180.87 25.4001C181.43 25.4001 182.05 25.2001 182.93 24.7801C184.33 24.0901 185.8 22.6901 187.37 20.6001C188.22 19.4601 188.58 18.8701 188.48 18.4401" fill="black"/>
<path d="M192.65 17.4699C192.52 18.1199 192.29 18.4499 191.38 19.5899C190.2 21.0599 189.22 21.9699 188.08 22.6899C187.69 22.9499 187.23 23.1099 187.03 23.1099H186.87L186.9 22.5199C187.03 20.9199 188.6 18.4099 190.39 16.9399C191.47 16.0299 192.15 15.8999 192.45 16.0599C192.71 16.2199 192.78 16.7499 192.65 17.4599M200.39 17.1699C200.13 17.0099 199.87 16.9399 199.61 17.0099C199.28 17.1099 198.96 17.3999 198.73 17.8899C197.95 19.3899 195.5 22.2299 194.26 23.0799C193.64 23.4699 193.57 23.4399 193.38 23.2399C192.89 22.7499 193.51 20.5299 195.96 16.6799C196.03 16.5499 196.68 15.4999 196.68 15.2399C196.68 15.0099 196.55 14.7799 196.29 14.6199C196.06 14.4599 195.73 14.3299 195.47 14.4199C195.21 14.5199 194.85 15.0099 194.69 15.2399L194.43 15.5999L194.3 15.3699C193.78 14.4199 193.22 14.1299 192.14 14.1299H192.11C191.36 14.1299 190.97 14.2299 190.38 14.5499C186.95 16.4099 183.98 21.7999 185.12 24.0199C185.41 24.6099 185.9 24.9999 186.52 25.0999C187.7 25.2999 189.26 24.5799 190.96 23.0099L191.19 22.8099C191.22 23.8899 191.81 24.7999 192.69 25.1899C192.95 25.3199 193.21 25.3899 193.47 25.3899C194.48 25.3899 195.66 24.6699 197.03 23.2999C198.73 21.5999 200.85 18.6599 200.85 17.7799C200.85 17.5499 200.62 17.2899 200.39 17.1599V17.1699Z" fill="black"/>
<path d="M233.02 6.73011C232.63 7.22011 231.52 8.82011 230.54 10.2601L229.4 11.9601C229.07 12.4801 228.49 12.8101 227.86 12.8101L226 12.7801L227.11 11.7401C228.84 10.0701 231.65 7.72011 233.05 6.68011C233.05 6.71011 233.02 6.71011 233.02 6.75011M216.92 20.1401C215.58 21.6701 214.31 22.7501 213.26 23.2401C211.89 23.9301 211.04 23.8601 210.26 23.0101C208.99 21.6701 209.31 19.6801 211.04 17.9501C213 16.0201 215.28 15.2401 219.79 15.0401C221.78 14.9401 222.4 14.0001 216.92 20.1301V20.1401ZM237.85 2.93011C237.49 2.64011 237.26 2.57011 236.74 2.64011C234.45 2.93011 228.84 7.02011 224.49 11.5501L223.67 12.4001C223.31 12.7601 222.82 12.9601 222.33 12.9601H221.64C219.55 12.9601 217.04 13.1901 215.31 13.5501C211.91 14.2701 209.24 16.1901 207.96 18.8401C207.57 19.6901 207.5 20.0201 207.5 21.0901C207.5 22.4901 207.73 23.1501 208.64 24.2901C209.65 25.6001 211.74 26.0201 213.47 25.3701C215.46 24.5501 216.87 23.3101 220.59 18.9401C221.96 17.3701 223.4 15.7401 223.69 15.4101L224.21 14.8501H226.04C228.03 14.8501 227.84 14.3901 226.4 17.2701C223.72 22.7201 223.49 26.3201 225.68 29.2901C226.43 30.3001 228.06 31.5801 229.04 31.9001C229.43 32.0301 229.89 32.1001 230.35 32.1001C231.49 32.1001 232.73 31.6801 234.04 30.7901C234.6 30.4001 234.89 30.0401 234.92 29.6501C234.95 29.4201 234.85 29.1601 234.66 28.9601C234.17 28.4701 233.71 28.6701 232.54 29.3501C231.01 30.2601 229.83 30.3301 228.82 29.5501C226.24 27.5901 225.62 25.1701 226.73 21.4801C227.06 20.4701 229.02 16.3501 229.7 15.2801C229.8 15.2501 230.12 14.7601 230.94 14.6901C233.23 14.6901 235.61 13.9401 236.46 12.9601C236.82 12.5701 236.98 12.1401 236.95 11.8201C236.92 11.6201 236.85 11.4301 236.69 11.3301C236.14 10.9101 235.78 11.0001 235.02 11.5901C234.2 12.2101 233.35 12.4701 231.95 12.6301L231.33 12.6601L231.46 12.5001C231.75 11.9801 232.5 10.9301 234.46 8.12011C236.71 4.99011 237.24 4.79011 237.3 4.79011C237.72 4.76011 238.05 4.56011 238.18 4.20011C238.34 3.78011 238.18 3.29011 237.82 2.93011H237.85Z" fill="black"/>
<path d="M235.45 13.0001C235.68 13.0001 235.94 12.9001 236.23 12.7401C236.95 12.3201 237.21 11.5601 236.88 10.9801C236.65 10.5601 236.36 10.4901 235.9 10.4601C235.31 10.3901 235.12 10.4901 234.76 10.9201C234.2 11.5701 234.2 12.1901 234.66 12.6801C234.89 12.9101 235.15 13.0101 235.44 13.0101M238.54 16.9001C238.08 16.9001 236.97 18.6001 236.12 19.6801C234.32 21.9001 232.85 23.1701 231.71 23.4401C231.55 23.4701 231.51 23.4701 231.51 23.4701C231.48 23.4701 231.48 23.4401 231.41 23.3101C231.21 22.8201 231.61 21.1501 232.85 18.6401C233.7 16.9701 234.65 15.5401 234.81 15.4101C235.04 15.3401 235.17 15.0501 235.17 14.6301C235.17 14.1701 235.1 13.9401 234.68 13.7501C234.48 13.6501 234.16 13.5501 233.86 13.7201C233.34 14.0501 231.7 16.5901 230.89 18.2601C229.09 21.8501 228.93 24.0101 230.3 25.0801C230.63 25.3401 230.95 25.4401 231.57 25.4401C232.75 25.4401 234.15 24.6901 235.59 23.2501C236.67 22.2001 239.57 18.4201 239.57 17.8601C239.57 17.2401 239.08 16.9101 238.53 16.9101L238.54 16.9001Z" fill="black"/>
<path d="M247.2 18.4501C247.13 18.1601 246.91 18.0301 246.71 17.9301C245.99 17.5701 245.44 18.0901 244.59 19.3001C243.41 20.9701 241.85 22.4701 240.74 23.0201C240.09 23.3501 239.66 23.4401 239.47 23.3101C239.27 23.1801 239.18 22.7901 239.18 22.1001C239.21 20.7601 239.83 19.2601 241.76 15.9001C243.59 12.7001 245.29 9.8301 245.81 9.0401C246.07 8.6501 246.37 8.1301 246.43 7.9601C246.53 7.7001 246.5 7.4001 246.36 7.2101C246.2 6.9801 245.94 6.8501 245.61 6.8501C245.12 6.8501 244.89 7.0801 244.07 8.2501C241.69 11.7101 237.96 18.3701 237.47 20.1701C237.14 21.3801 237.08 22.8101 237.34 23.6001C237.57 24.2901 238.35 25.1001 238.97 25.3001C239.17 25.3701 239.39 25.4001 239.59 25.4001C240.14 25.4001 240.77 25.2001 241.65 24.7801C243.05 24.0901 244.52 22.6901 246.09 20.6001C246.94 19.4601 247.3 18.8701 247.2 18.4401" fill="black"/>
<path d="M254.22 18.4501C254.15 18.1601 253.93 18.0301 253.73 17.9301C253.01 17.5701 252.46 18.0901 251.61 19.3001C250.43 20.9701 248.87 22.4701 247.76 23.0201C247.11 23.3501 246.68 23.4401 246.49 23.3101C246.29 23.1801 246.2 22.7901 246.2 22.1001C246.23 20.7601 246.85 19.2601 248.78 15.9001C250.61 12.7001 252.31 9.8301 252.83 9.0401C253.09 8.6501 253.39 8.1301 253.45 7.9601C253.55 7.7001 253.52 7.4001 253.38 7.2101C253.22 6.9801 252.96 6.8501 252.63 6.8501C252.14 6.8501 251.91 7.0801 251.09 8.2501C248.71 11.7101 244.98 18.3701 244.49 20.1701C244.16 21.3801 244.1 22.8101 244.36 23.6001C244.59 24.2901 245.37 25.1001 245.99 25.3001C246.19 25.3701 246.41 25.4001 246.61 25.4001C247.16 25.4001 247.79 25.2001 248.67 24.7801C250.07 24.0901 251.54 22.6901 253.11 20.6001C253.96 19.4601 254.32 18.8701 254.22 18.4401" fill="black"/>
<path d="M261.27 8.16993C261.2 8.03993 261.07 7.90993 260.88 7.83993C260.59 7.76993 260.19 7.76993 259.93 7.93993C259.73 8.06993 258.72 9.30993 258.62 9.43993C257.71 10.5799 257.38 11.1699 257.44 11.5999C257.47 11.7999 257.6 11.9599 257.8 12.0899C258 12.1899 258.16 12.2499 258.32 12.2499C258.81 12.2499 259.27 11.6899 260.28 10.3899C261.29 9.11993 261.49 8.75993 261.26 8.16993M257.18 19.1399C256.98 19.5599 256.82 19.7599 256.69 19.8299C256.56 19.8599 256.36 19.7999 256 19.6299C255.28 19.2699 255.02 18.9799 254.89 18.4899C254.79 17.9699 254.92 17.5799 255.35 17.1799C255.71 16.8499 256.43 16.5899 256.79 16.5899H256.89C257.09 16.6599 257.25 16.7899 257.38 17.0099C257.61 17.5299 257.54 18.3499 257.18 19.1299V19.1399ZM253.78 23.0599C253.39 23.3199 253.09 23.4499 252.9 23.4199C252.83 23.3899 252.74 23.3499 252.61 23.1599C252.35 22.7399 252.58 21.5599 253.39 20.4799L253.52 20.3199L253.81 20.5799C254.1 20.8099 254.63 21.1399 255.02 21.3599C255.28 21.4599 255.44 21.5899 255.54 21.6499C255.28 21.9099 254.49 22.5999 253.78 23.0499V23.0599ZM264.69 17.1499C264.07 16.7299 263.81 16.8899 262.89 17.6699C261.94 18.4899 261.32 19.4699 259.07 19.8899C259.1 19.7599 259.14 19.5999 259.23 19.3999C259.56 18.5499 259.59 17.2799 259.33 16.5299C258.91 15.2899 258.02 14.6699 256.65 14.6699H256.62C254.79 14.6699 253.13 16.0699 252.8 17.9399C252.73 18.2699 252.51 18.6599 252.15 19.0499C251.17 20.1599 250.65 21.3399 250.58 22.5799C250.55 23.4899 250.61 23.7599 250.91 24.2099C251.14 24.4999 251.53 24.8999 251.82 25.1199C252.15 25.3499 252.51 25.4499 252.9 25.4499C253.98 25.4499 255.28 24.6699 256.82 23.1299C257.64 22.3099 258.03 22.0199 258.26 22.0199C259.96 21.9899 262.54 20.9099 264.01 19.5699C264.73 18.9199 265.12 18.1699 265.12 17.7699C265.09 17.5399 264.96 17.3499 264.7 17.1499H264.69Z" fill="black"/>
<path d="M275.74 16.9201C275.25 16.9201 274.24 17.9301 272.67 19.9201C270.94 22.1101 269.27 23.4501 268.65 23.4501C268.49 23.2501 268.81 21.8201 269.83 20.1801C270.94 18.4201 271.23 17.6701 271.33 16.7501C271.4 16.0301 271.36 15.8001 271 15.3801C270.71 15.0501 270.41 14.8901 270.05 14.8601C269.14 14.8301 267.96 15.7101 265.32 18.3201C264.8 18.8401 264.31 19.3301 263.95 19.6901C264.15 19.2701 264.44 18.7401 264.73 18.1601C266.04 15.5801 266.26 15.0601 265.81 14.6001C265.61 14.4001 265.35 14.3101 265.12 14.3401C264.73 14.4101 264.4 14.7301 264.08 15.2901C264.01 15.4201 263.43 16.4701 262.84 17.5801C261.57 19.9301 260.33 23.6501 260.33 24.4401C260.33 25.0901 260.72 25.4501 261.51 25.4501C261.9 25.4501 262.1 24.5401 263.67 22.9401C266.54 19.8701 268.24 18.2701 269.03 17.6201C268.9 17.8201 268.77 18.0801 268.57 18.3701C268.15 19.1501 267.56 20.2301 267.26 20.8201C266.31 22.7801 266.44 24.4401 267.62 25.1601C267.95 25.3601 268.27 25.4501 268.66 25.4501C269.7 25.4501 270.95 24.6701 272.55 23.0701C273.76 21.8301 276.76 18.4301 276.76 17.8801C276.76 17.4601 276.2 16.9301 275.75 16.9301" fill="black"/>
<path d="M102.32 22.7599C102.07 22.5099 101.78 22.3799 101.47 22.3799C101.13 22.3999 100.79 22.5999 100.46 22.9599C100.1 23.3899 99.94 23.9499 100.05 24.4499C100.12 24.8099 100.32 25.0999 100.63 25.2599C100.76 25.3299 100.9 25.3699 101.06 25.3699C101.26 25.3699 101.46 25.3199 101.67 25.2299C102.17 24.9999 102.57 24.5499 102.68 24.0999C102.81 23.5799 102.7 23.1599 102.32 22.7699" fill="black"/>
<path d="M22.33 20.4801L26.11 7.07007" stroke="#766037" stroke-width="0.57" stroke-miterlimit="22.93"/>
<path d="M7.94995 26.5899L22.33 20.4799L12.44 16.6299" stroke="#B5A490" stroke-width="0.57" stroke-miterlimit="22.93"/>
<path d="M19.47 33.75L22.33 20.48" stroke="#B5A490" stroke-width="0.57" stroke-miterlimit="22.93"/>
<path d="M27.41 29.07L22.38 20.29" stroke="#B5A490" stroke-width="0.57" stroke-miterlimit="22.93"/>
<path d="M37.63 13.71L22.26 20.29L35.42 23.99" stroke="#B5A490" stroke-width="0.57" stroke-miterlimit="22.93"/>
<path d="M18.6899 11.6899L22.3299 20.4799" stroke="#B5A490" stroke-width="0.57" stroke-miterlimit="22.93"/>
<path d="M28.22 14.39L22.4 20.23L12.4 12.3" stroke="#766037" stroke-width="0.57" stroke-miterlimit="22.93"/>
<path d="M32.9 28.97L22.4 20.23L34.08 18.23" stroke="#766037" stroke-width="0.57" stroke-miterlimit="22.93"/>
<path d="M24.7 30.27L22.15 20.02" stroke="#766037" stroke-width="0.57" stroke-miterlimit="22.93"/>
<path d="M22.36 11.3301L22.59 20.3801L18.45 27.3401" stroke="#766037" stroke-width="0.57" stroke-miterlimit="22.93"/>
<path fill-rule="evenodd" clip-rule="evenodd" d="M10.0601 11.75C12.2701 11.75 14.0601 13.54 14.0601 15.75C14.0601 17.96 12.2701 19.75 10.0601 19.75C7.85006 19.75 6.06006 17.96 6.06006 15.75C6.06006 13.54 7.85006 11.75 10.0601 11.75Z" fill="#B5A490"/>
<path fill-rule="evenodd" clip-rule="evenodd" d="M5.14 22.3899C7.98 22.3899 10.28 24.6899 10.28 27.5299C10.28 30.3699 7.98 32.6699 5.14 32.6699C2.3 32.6699 0 30.3699 0 27.5299C0 24.6899 2.3 22.3899 5.14 22.3899Z" fill="#B5A490"/>
<path fill-rule="evenodd" clip-rule="evenodd" d="M18.93 31.0801C21.45 31.0801 23.49 33.1201 23.49 35.6401C23.49 38.1601 21.45 40.2001 18.93 40.2001C16.41 40.2001 14.37 38.1601 14.37 35.6401C14.37 33.1201 16.41 31.0801 18.93 31.0801Z" fill="#B5A490"/>
<path fill-rule="evenodd" clip-rule="evenodd" d="M27.78 26.8999C29.44 26.8999 30.78 28.2399 30.78 29.8999C30.78 31.5599 29.44 32.8999 27.78 32.8999C26.12 32.8999 24.78 31.5599 24.78 29.8999C24.78 28.2399 26.12 26.8999 27.78 26.8999Z" fill="#B5A490"/>
<path fill-rule="evenodd" clip-rule="evenodd" d="M36.37 20.76C38.38 20.76 40.02 22.39 40.02 24.41C40.02 26.43 38.39 28.06 36.37 28.06C34.35 28.06 32.72 26.43 32.72 24.41C32.72 22.39 34.35 20.76 36.37 20.76Z" fill="#B5A490"/>
<path fill-rule="evenodd" clip-rule="evenodd" d="M40.74 7.18994C43.58 7.18994 45.88 9.48994 45.88 12.3299C45.88 15.1699 43.58 17.4699 40.74 17.4699C37.9 17.4699 35.6 15.1699 35.6 12.3299C35.6 9.48994 37.9 7.18994 40.74 7.18994Z" fill="#B5A490"/>
<path fill-rule="evenodd" clip-rule="evenodd" d="M18.15 7.02002C19.81 7.02002 21.15 8.36002 21.15 10.02C21.15 11.68 19.81 13.02 18.15 13.02C16.49 13.02 15.15 11.68 15.15 10.02C15.15 8.36002 16.49 7.02002 18.15 7.02002Z" fill="#B5A490"/>
<path fill-rule="evenodd" clip-rule="evenodd" d="M26.71 0C29.15 0 31.14 1.98 31.14 4.43C31.14 6.88 29.16 8.86 26.71 8.86C24.26 8.86 22.28 6.88 22.28 4.43C22.28 1.98 24.26 0 26.71 0Z" fill="#B5A490"/>
<path d="M83.9399 38.73H103.98" stroke="black" stroke-width="1.2" stroke-miterlimit="22.93"/>
<path d="M225.05 38.73H245.09" stroke="black" stroke-width="1.2" stroke-miterlimit="22.93"/>
<path d="M218.36 35.4901H219.43V39.6901H221.99V40.6101H218.37V35.4901H218.36ZM214.7 35.4901H215.91L217.71 40.6101H216.55L216.21 39.5601H214.33L213.98 40.6101H212.87L214.69 35.4901H214.7ZM214.63 38.6701H215.94L215.3 36.6601L214.64 38.6701H214.63ZM213.14 35.4901V36.3901H211.6V40.6101H210.53V36.3901H208.99V35.4901H213.13H213.14ZM204.27 35.4901H205.38L207.43 39.0601V35.4901H208.42V40.6101H207.36L205.26 36.9701V40.6101H204.27V35.4901ZM203.33 36.3901H200.62V37.4801H203.11V38.3701H200.62V39.6801H203.45V40.6001H199.57V35.4801H203.32V36.3801L203.33 36.3901ZM197.02 35.4901H198.55V40.6101H197.56V37.1501C197.56 37.0501 197.56 36.9101 197.56 36.7301C197.56 36.5501 197.56 36.4101 197.56 36.3201L196.59 40.6101H195.54L194.57 36.3201C194.57 36.4201 194.57 36.5501 194.57 36.7301C194.57 36.9101 194.57 37.0501 194.57 37.1501V40.6101H193.58V35.4901H195.13L196.07 39.5101L197 35.4901H197.02ZM188.99 35.4901C189.34 35.4901 189.61 35.5401 189.8 35.6201C189.99 35.7001 190.15 35.8201 190.28 35.9801C190.39 36.1101 190.47 36.2501 190.54 36.4101C190.6 36.5701 190.64 36.7501 190.64 36.9501C190.64 37.1901 190.58 37.4301 190.46 37.6701C190.34 37.9001 190.13 38.0701 189.85 38.1701C190.09 38.2701 190.25 38.4001 190.35 38.5801C190.45 38.7501 190.5 39.0201 190.5 39.3801V39.7201C190.5 39.9501 190.5 40.1101 190.53 40.2001C190.56 40.3301 190.62 40.4301 190.73 40.4901V40.6201H189.55C189.52 40.5101 189.49 40.4101 189.48 40.3501C189.45 40.2101 189.44 40.0601 189.43 39.9101V39.4301C189.42 39.1001 189.36 38.8901 189.25 38.7801C189.14 38.6701 188.94 38.6201 188.64 38.6201H187.6V40.6301H186.56V35.5101H189.01L188.99 35.4901ZM187.59 36.3701V37.7501H188.74C188.97 37.7501 189.14 37.7201 189.25 37.6701C189.45 37.5701 189.55 37.3801 189.55 37.0901C189.55 36.7801 189.45 36.5701 189.26 36.4601C189.15 36.4001 188.99 36.3701 188.77 36.3701H187.59ZM182.85 35.4901H184.06L185.86 40.6101H184.7L184.36 39.5601H182.48L182.13 40.6101H181.02L182.84 35.4901H182.85ZM182.78 38.6701H184.09L183.45 36.6601L182.79 38.6701H182.78ZM181.29 35.4901V36.3901H179.75V40.6101H178.68V36.3901H177.14V35.4901H181.28H181.29ZM173.59 39.0201C173.62 39.2501 173.69 39.4301 173.78 39.5401C173.96 39.7501 174.26 39.8601 174.69 39.8601C174.95 39.8601 175.16 39.8301 175.32 39.7801C175.62 39.6701 175.78 39.4801 175.78 39.1901C175.78 39.0201 175.71 38.8901 175.55 38.8001C175.4 38.7101 175.16 38.6301 174.84 38.5601L174.29 38.4401C173.75 38.3201 173.37 38.1901 173.17 38.0501C172.83 37.8101 172.66 37.4401 172.66 36.9401C172.66 36.4801 172.83 36.1001 173.16 35.8001C173.5 35.5001 173.99 35.3501 174.64 35.3501C175.18 35.3501 175.65 35.4901 176.03 35.7801C176.42 36.0701 176.62 36.4801 176.64 37.0201H175.61C175.59 36.7101 175.45 36.5001 175.2 36.3701C175.03 36.2801 174.82 36.2401 174.57 36.2401C174.29 36.2401 174.07 36.3001 173.9 36.4101C173.73 36.5201 173.65 36.6801 173.65 36.8701C173.65 37.0501 173.73 37.1901 173.9 37.2801C174.01 37.3401 174.23 37.4101 174.58 37.4901L175.48 37.7001C175.87 37.7901 176.17 37.9201 176.36 38.0701C176.66 38.3101 176.82 38.6601 176.82 39.1201C176.82 39.5801 176.64 39.9801 176.28 40.2901C175.92 40.6001 175.41 40.7501 174.75 40.7501C174.09 40.7501 173.55 40.6001 173.16 40.2901C172.77 39.9901 172.58 39.5701 172.58 39.0301H173.6L173.59 39.0201ZM171.87 36.3901H169.16V37.4801H171.65V38.3701H169.16V39.6801H171.99V40.6001H168.11V35.4801H171.86V36.3801L171.87 36.3901ZM162.94 35.4901H164.05L166.1 39.0601V35.4901H167.09V40.6101H166.03L163.93 36.9701V40.6101H162.94V35.4901ZM162 36.3901H159.29V37.4801H161.78V38.3701H159.29V39.6801H162.12V40.6001H158.24V35.4801H161.99V36.3801L162 36.3901ZM157.21 40.6101H156.15V35.4901H157.21V40.6101ZM153.59 35.4901C154.21 35.4901 154.66 35.6801 154.92 36.0401C155.08 36.2601 155.15 36.5201 155.15 36.8201C155.15 37.1201 155.07 37.3801 154.91 37.5701C154.82 37.6801 154.69 37.7701 154.52 37.8601C154.78 37.9601 154.98 38.1101 155.11 38.3101C155.24 38.5201 155.31 38.7701 155.31 39.0601C155.31 39.3501 155.23 39.6401 155.08 39.8801C154.98 40.0401 154.86 40.1701 154.72 40.2801C154.56 40.4001 154.36 40.4901 154.14 40.5401C153.92 40.5901 153.68 40.6101 153.42 40.6101H151.12V35.4901H153.59ZM152.14 38.3501V39.7201H153.38C153.6 39.7201 153.77 39.6901 153.9 39.6301C154.12 39.5201 154.24 39.3001 154.24 38.9901C154.24 38.7201 154.13 38.5401 153.92 38.4401C153.8 38.3801 153.63 38.3501 153.41 38.3501H152.15H152.14ZM152.14 36.3701V37.5101H153.38C153.6 37.5101 153.78 37.4701 153.92 37.3801C154.06 37.2901 154.13 37.1401 154.13 36.9301C154.13 36.6901 154.04 36.5301 153.86 36.4501C153.7 36.4001 153.5 36.3701 153.26 36.3701H152.15H152.14ZM148.17 36.3901H145.46V37.4801H147.95V38.3701H145.46V39.6801H148.29V40.6001H144.41V35.4801H148.16V36.3801L148.17 36.3901ZM141.45 35.4901C141.77 35.4901 142.03 35.5301 142.24 35.6001C142.6 35.7201 142.89 35.9301 143.11 36.2501C143.29 36.5001 143.41 36.7801 143.48 37.0801C143.55 37.3801 143.58 37.6601 143.58 37.9301C143.58 38.6101 143.44 39.1901 143.17 39.6601C142.8 40.3001 142.22 40.6201 141.45 40.6201H139.24V35.5001H141.45V35.4901ZM140.28 36.3701V39.7301H141.27C141.78 39.7301 142.13 39.4801 142.33 38.9801C142.44 38.7101 142.49 38.3801 142.49 38.0001C142.49 37.4801 142.41 37.0701 142.24 36.7901C142.08 36.5101 141.75 36.3701 141.26 36.3701H140.27H140.28ZM136.46 38.0401C136.46 38.9601 136.2 39.6601 135.69 40.1501C135.3 40.5501 134.74 40.7501 134.01 40.7501C133.28 40.7501 132.72 40.5501 132.33 40.1501C131.81 39.6601 131.55 38.9601 131.55 38.0401C131.55 37.1201 131.81 36.4001 132.33 35.9301C132.72 35.5301 133.28 35.3301 134.01 35.3301C134.74 35.3301 135.3 35.5301 135.69 35.9301C136.21 36.4001 136.46 37.1001 136.46 38.0401ZM134.01 39.8501C134.44 39.8501 134.77 39.6901 135.02 39.3801C135.27 39.0701 135.39 38.6201 135.39 38.0401C135.39 37.4601 135.27 37.0201 135.02 36.7101C134.77 36.4001 134.43 36.2401 134.01 36.2401C133.59 36.2401 133.25 36.4001 132.99 36.7101C132.74 37.0201 132.61 37.4701 132.61 38.0501C132.61 38.6301 132.74 39.0701 132.99 39.3901C133.24 39.7001 133.58 39.8601 134.01 39.8601V39.8501ZM129.09 35.4901C129.44 35.4901 129.71 35.5401 129.9 35.6201C130.09 35.7001 130.25 35.8201 130.38 35.9801C130.49 36.1101 130.57 36.2501 130.64 36.4101C130.7 36.5701 130.73 36.7501 130.73 36.9501C130.73 37.1901 130.67 37.4301 130.55 37.6701C130.43 37.9001 130.22 38.0701 129.94 38.1701C130.18 38.2701 130.34 38.4001 130.44 38.5801C130.54 38.7501 130.59 39.0201 130.59 39.3801V39.7201C130.59 39.9501 130.59 40.1101 130.62 40.2001C130.65 40.3301 130.71 40.4301 130.82 40.4901V40.6201H129.64C129.61 40.5101 129.58 40.4101 129.57 40.3501C129.54 40.2101 129.53 40.0601 129.52 39.9101V39.4301C129.51 39.1001 129.45 38.8901 129.34 38.7801C129.23 38.6701 129.03 38.6201 128.73 38.6201H127.69V40.6301H126.65V35.5101H129.1L129.09 35.4901ZM127.69 36.3701V37.7501H128.84C129.07 37.7501 129.24 37.7201 129.35 37.6701C129.55 37.5701 129.65 37.3801 129.65 37.0901C129.65 36.7801 129.55 36.5701 129.36 36.4601C129.25 36.4001 129.09 36.3701 128.87 36.3701H127.69ZM126 35.4901V36.3901H124.46V40.6101H123.39V36.3901H121.85V35.4901H125.99H126ZM117.13 35.4901H118.24L120.29 39.0601V35.4901H121.28V40.6101H120.22L118.12 36.9701V40.6101H117.13V35.4901ZM116.19 36.3901H113.48V37.4801H115.97V38.3701H113.48V39.6801H116.31V40.6001H112.43V35.4801H116.18V36.3801L116.19 36.3901ZM107.05 38.0901C107.05 37.2001 107.29 36.5101 107.76 36.0301C108.17 35.6101 108.69 35.4001 109.33 35.4001C110.18 35.4001 110.8 35.6801 111.19 36.2501C111.41 36.5701 111.52 36.8801 111.54 37.2001H110.48C110.41 36.9501 110.32 36.7701 110.22 36.6401C110.03 36.4201 109.75 36.3101 109.37 36.3101C108.99 36.3101 108.69 36.4701 108.47 36.7801C108.25 37.0901 108.14 37.5401 108.14 38.1101C108.14 38.6801 108.26 39.1101 108.49 39.4001C108.72 39.6901 109.02 39.8301 109.37 39.8301C109.72 39.8301 110.02 39.7101 110.21 39.4601C110.32 39.3301 110.4 39.1301 110.47 38.8701H111.53C111.44 39.4301 111.21 39.8801 110.83 40.2301C110.45 40.5801 109.97 40.7501 109.38 40.7501C108.65 40.7501 108.08 40.5101 107.67 40.0401C107.25 39.5701 107.05 38.9201 107.05 38.0901Z" fill="black"/>
<path d="M22.59 20.1899L11.63 23.5599" stroke="#766037" stroke-width="0.57" stroke-miterlimit="22.93"/>
<path fill-rule="evenodd" clip-rule="evenodd" d="M10.8101 6.57007C13.0201 6.57007 14.8101 8.36007 14.8101 10.5701C14.8101 12.7801 13.0201 14.5701 10.8101 14.5701C8.60006 14.5701 6.81006 12.7801 6.81006 10.5701C6.81006 8.36007 8.60006 6.57007 10.8101 6.57007Z" fill="#766037"/>
<path fill-rule="evenodd" clip-rule="evenodd" d="M10.45 20.4099C12.43 20.4099 14.03 22.0099 14.03 23.9899C14.03 25.9699 12.43 27.5699 10.45 27.5699C8.47 27.5699 6.87 25.9699 6.87 23.9899C6.87 22.0099 8.47 20.4099 10.45 20.4099Z" fill="#766037"/>
<path fill-rule="evenodd" clip-rule="evenodd" d="M17.81 25.8701C19.09 25.8701 20.12 26.9001 20.12 28.1801C20.12 29.4601 19.09 30.4901 17.81 30.4901C16.53 30.4901 15.5 29.4601 15.5 28.1801C15.5 26.9001 16.53 25.8701 17.81 25.8701Z" fill="#766037"/>
<path fill-rule="evenodd" clip-rule="evenodd" d="M25.0699 28.54C26.9399 28.54 28.4499 30.06 28.4499 31.93C28.4499 33.8 26.9299 35.31 25.0699 35.31C23.2099 35.31 21.6899 33.79 21.6899 31.93C21.6899 30.07 23.2099 28.54 25.0699 28.54Z" fill="#766037"/>
<path fill-rule="evenodd" clip-rule="evenodd" d="M35.6499 26.5901C38.0399 26.5901 39.9799 28.5301 39.9799 30.9201C39.9799 33.3101 38.0399 35.2501 35.6499 35.2501C33.2599 35.2501 31.3199 33.3101 31.3199 30.9201C31.3199 28.5301 33.2599 26.5901 35.6499 26.5901Z" fill="#766037"/>
<path fill-rule="evenodd" clip-rule="evenodd" d="M28.71 11.2C29.99 11.2 31.02 12.23 31.02 13.51C31.02 14.79 29.99 15.82 28.71 15.82C27.43 15.82 26.4 14.79 26.4 13.51C26.4 12.23 27.43 11.2 28.71 11.2Z" fill="#766037"/>
<path fill-rule="evenodd" clip-rule="evenodd" d="M36.23 14.25C38.1 14.25 39.62 15.77 39.62 17.63C39.62 19.49 38.1 21.02 36.23 21.02C34.36 21.02 32.85 19.5 32.85 17.63C32.85 15.76 34.37 14.25 36.23 14.25Z" fill="#766037"/>
<path fill-rule="evenodd" clip-rule="evenodd" d="M21.2901 6.51001C22.9401 6.51001 24.2801 7.85001 24.2801 9.50001C24.2801 11.15 22.9401 12.49 21.2901 12.49C19.6401 12.49 18.3 11.15 18.3 9.50001C18.3 7.85001 19.6401 6.51001 21.2901 6.51001Z" fill="#766037"/>
</g>
<defs>
<clipPath id="clip0_419_615">
<rect width="276.75" height="40.75" fill="white"/>
</clipPath>
</defs>
</svg>
