<svg width="48" height="38" viewBox="0 0 48 38" fill="none" xmlns="http://www.w3.org/2000/svg">
<path d="M8.12287 0H40.1439C42.1037 0 43.9833 0.788912 45.3691 2.19318C46.7549 3.59746 47.5334 5.50206 47.5334 7.488V29.952C47.5334 31.9379 46.7549 33.8425 45.3691 35.2468C43.9833 36.6511 42.1037 37.44 40.1439 37.44H8.12287C6.16306 37.44 4.28352 36.6511 2.89773 35.2468C1.51193 33.8425 0.733398 31.9379 0.733398 29.952V7.488C0.733398 5.50206 1.51193 3.59746 2.89773 2.19318C4.28352 0.788912 6.16306 0 8.12287 0ZM8.12287 2.496C6.89129 2.496 5.8075 2.92032 4.97003 3.66912L24.1334 16.224L43.2968 3.66912C42.4593 2.92032 41.3755 2.496 40.1439 2.496H8.12287ZM24.1334 19.2442L3.51677 5.69088C3.31971 6.24 3.19656 6.864 3.19656 7.488V29.952C3.19656 31.276 3.71558 32.5457 4.63944 33.4819C5.5633 34.4181 6.81633 34.944 8.12287 34.944H40.1439C41.4505 34.944 42.7035 34.4181 43.6274 33.4819C44.5512 32.5457 45.0702 31.276 45.0702 29.952V7.488C45.0702 6.864 44.9471 6.24 44.75 5.69088L24.1334 19.2442Z" fill="#766037"/>
</svg>