<svg width="40" height="56" viewBox="0 0 40 56" fill="none" xmlns="http://www.w3.org/2000/svg">
<path d="M37.993 19.8813C37.993 29.8318 19.9489 53.8491 19.9489 53.8491C19.9489 53.8491 1.90479 29.8318 1.90479 19.8813C1.90479 15.1119 3.80586 10.5379 7.18979 7.1654C10.5737 3.79294 15.1633 1.89832 19.9489 1.89832C24.7345 1.89832 29.3241 3.79294 32.708 7.1654C36.0919 10.5379 37.993 15.1119 37.993 19.8813Z" stroke="#766037" stroke-width="3" stroke-linecap="round" stroke-linejoin="round"/>
<path d="M19.949 25.8756C23.2708 25.8756 25.9637 23.1918 25.9637 19.8813C25.9637 16.5707 23.2708 13.887 19.949 13.887C16.6272 13.887 13.9343 16.5707 13.9343 19.8813C13.9343 23.1918 16.6272 25.8756 19.949 25.8756Z" stroke="#766037" stroke-width="3" stroke-linecap="round" stroke-linejoin="round"/>
</svg>