<svg width="40" height="51" viewBox="0 0 40 51" fill="none" xmlns="http://www.w3.org/2000/svg">
<g clip-path="url(#clip0_292_3229)">
<path d="M16.5284 36.6659C15.6113 38.8101 14.7255 40.878 13.8425 42.9487C12.8758 45.213 11.9076 47.4772 10.9508 49.7471C10.6726 50.4068 10.2651 50.9054 9.5099 50.9901C8.72913 51.0777 8.21097 50.6751 7.80923 50.0466C7.2783 49.2146 6.71188 48.4052 6.18379 47.5704C6.0106 47.2964 5.83457 47.247 5.53077 47.3346C4.61513 47.5959 3.68672 47.8134 2.77108 48.0719C2.0485 48.2753 1.39549 48.2188 0.880171 47.6312C0.364857 47.0436 0.398928 46.3981 0.692784 45.7073C2.68022 41.0305 4.6563 36.3481 6.63522 31.667C6.68916 31.5385 6.74027 31.4085 6.80273 31.2517C5.96375 31.1331 5.13896 31.0625 4.33689 30.8916C2.75404 30.554 2.12516 29.4903 2.59788 27.9493C2.79237 27.3137 3.08481 26.7063 3.36447 26.0989C4.27727 24.1172 4.27301 24.0946 2.4616 22.8346C2.0414 22.5422 1.62262 22.2456 1.22513 21.9221C0.966767 21.7117 0.721176 21.4744 0.516754 21.2131C-0.157555 20.35 -0.191625 19.4319 0.519593 18.6084C0.973865 18.0815 1.55874 17.6634 2.10528 17.2213C2.58511 16.8329 3.09616 16.4826 3.58734 16.1097C3.97489 15.8144 4.07143 15.4288 3.88404 14.9839C3.57741 14.255 3.24096 13.5375 2.95562 12.8016C2.75972 12.2973 2.55104 11.7775 2.4829 11.2464C2.33952 10.1291 2.82928 9.3268 3.91953 9.04006C4.85079 8.79429 5.82747 8.69117 6.79138 8.60077C8.28621 8.46093 8.51619 8.23069 8.64821 6.7518C8.73197 5.80966 8.8285 4.85339 9.07267 3.94515C9.40911 2.69649 10.4199 2.14844 11.6634 2.52416C12.6373 2.81938 13.5629 3.27279 14.5083 3.66123C15.6284 4.12171 15.8356 4.07086 16.5568 3.11036C17.0111 2.50439 17.4497 1.8843 17.904 1.27692C18.0403 1.09471 18.1993 0.925206 18.3625 0.76418C19.3974 -0.247175 20.6296 -0.266951 21.6318 0.78113C22.1656 1.33907 22.6128 1.98176 23.0656 2.61174C24.2027 4.19375 24.2851 4.222 26.0809 3.40416C26.6274 3.15556 27.1669 2.88718 27.729 2.68237C29.6384 1.98882 30.8862 2.75299 31.1488 4.76581C31.2681 5.67264 31.3405 6.58654 31.4711 7.49195C31.5761 8.21939 31.7394 8.37336 32.4861 8.48495C33.5338 8.64032 34.5985 8.69965 35.6348 8.9087C37.2787 9.24064 37.9132 10.3424 37.3794 11.923C37.0827 12.803 36.6469 13.6349 36.2849 14.4938C35.852 15.5235 35.9286 15.7721 36.8315 16.4515C37.6208 17.0462 38.4598 17.5886 39.1823 18.2553C40.2797 19.268 40.2513 20.4828 39.2065 21.5436C39.0461 21.706 38.8743 21.8614 38.6897 21.9984C38.0225 22.4928 37.3397 22.9646 36.6796 23.4674C35.9499 24.0225 35.8803 24.281 36.2281 25.1384C36.4794 25.7571 36.7676 26.3616 37.0373 26.9733C37.1225 27.1668 37.2105 27.3589 37.2829 27.5566C37.9941 29.4932 37.2446 30.7305 35.1918 31.0003C34.5445 31.0851 33.8943 31.15 33.1845 31.2306C33.6743 32.3888 34.1499 33.516 34.6254 34.6432C36.1799 38.3199 37.7329 41.9981 39.2916 45.6734C39.4961 46.1565 39.6295 46.6325 39.4237 47.1523C39.1014 47.9659 38.2766 48.3473 37.3198 48.0959C36.3815 47.8501 35.4431 47.6015 34.5133 47.3303C34.191 47.2357 34.0036 47.295 33.8191 47.586C33.2825 48.4349 32.7047 49.2584 32.1567 50.1017C31.772 50.6935 31.2667 51.0593 30.5327 50.9901C29.8031 50.9209 29.3743 50.4774 29.0975 49.8262C27.3145 45.6353 25.523 41.4472 23.7329 37.2591C23.6576 37.0826 23.5767 36.9074 23.4716 36.6701C22.9592 37.3594 22.5006 38.0205 21.9953 38.6448C21.4984 39.2592 20.9135 39.7635 20.0518 39.7861C19.139 39.8115 18.5258 39.2847 18.0019 38.6434C17.5022 38.0304 17.0522 37.3764 16.527 36.6659H16.5284ZM28.7185 35.7619C29.2806 35.8 29.4127 35.4992 29.4581 35.1757C29.5844 34.2703 29.6625 33.3578 29.7917 32.4524C30.0132 30.8916 30.5313 29.9508 32.2774 29.7107C33.274 29.5737 34.279 29.4875 35.2713 29.3223C35.9854 29.2036 36.089 29.02 35.8292 28.3406C35.5027 27.4874 35.0584 26.6766 34.7645 25.815C34.5658 25.2316 34.4196 24.5819 34.4622 23.9759C34.5303 22.9928 35.331 22.4532 36.0535 21.908C36.7023 21.4193 37.378 20.9644 37.9984 20.4432C38.4924 20.0294 38.491 19.7808 38.0041 19.3655C37.4419 18.8852 36.8357 18.453 36.231 18.025C34.2152 16.597 33.9625 15.6619 34.9903 13.4061C35.2955 12.7352 35.5978 12.06 35.8505 11.3679C36.0592 10.7958 35.9428 10.5924 35.3295 10.4907C34.4764 10.3495 33.6147 10.2562 32.753 10.1743C30.7911 9.98644 29.9734 9.17001 29.7775 7.20098C29.6895 6.32663 29.5944 5.45088 29.4482 4.5836C29.3573 4.04685 29.1358 3.92678 28.6177 4.11747C27.8738 4.3915 27.147 4.71214 26.4216 5.03278C24.2737 5.98198 23.3027 5.72067 21.9413 3.82508C21.5197 3.23748 21.108 2.6414 20.6438 2.0877C20.1342 1.48173 19.8815 1.48032 19.3761 2.0764C18.9318 2.59903 18.5371 3.16544 18.1368 3.7248C16.6618 5.77717 15.7178 6.02012 13.4081 4.95933C12.7523 4.65846 12.0865 4.37031 11.4079 4.12595C10.8585 3.9282 10.6527 4.04261 10.5561 4.62174C10.4128 5.48902 10.3148 6.36336 10.2325 7.23911C10.0565 9.14176 9.20611 9.98785 7.27546 10.1757C6.39673 10.2619 5.51658 10.3565 4.64636 10.5006C4.07569 10.5952 3.9607 10.8099 4.1566 11.3566C4.388 12.0007 4.67901 12.6236 4.94306 13.255C5.08502 13.5954 5.24543 13.9302 5.3661 14.2776C5.86154 15.7014 5.61453 16.5956 4.42349 17.5377C3.68955 18.1182 2.90168 18.6296 2.17059 19.2129C1.4906 19.7568 1.4906 20.0378 2.15639 20.5845C2.70151 21.0322 3.28781 21.4292 3.86275 21.8402C5.77494 23.2103 6.02905 24.1581 5.06656 26.2995C4.74999 27.0043 4.42917 27.7106 4.16228 28.4352C3.94792 29.0129 4.06149 29.2121 4.67759 29.3152C5.54781 29.4593 6.42796 29.5483 7.30669 29.6401C9.11384 29.8265 9.8208 30.4297 10.1501 32.2009C10.3035 33.0287 10.346 33.8776 10.4468 34.7152C10.5789 35.8127 10.8245 35.9596 11.8522 35.5528C12.2128 35.4102 12.5635 35.2407 12.9184 35.0853C13.3556 34.8946 13.7843 34.6841 14.2315 34.5217C15.7647 33.9638 16.615 34.1926 17.6399 35.4582C18.1382 36.0755 18.5811 36.7365 19.0624 37.3679C19.8673 38.423 20.1384 38.423 20.9448 37.3665C21.4374 36.721 21.8902 36.0458 22.3942 35.4116C23.3197 34.2491 24.224 33.9751 25.6223 34.4807C26.45 34.7802 27.2421 35.1785 28.0527 35.5232C28.3111 35.6333 28.5794 35.7153 28.7213 35.7661L28.7185 35.7619ZM31.6869 31.8648C31.6414 31.8563 31.596 31.8492 31.552 31.8408C31.491 32.2179 31.4257 32.595 31.3717 32.9722C31.2354 33.9101 31.19 34.8706 30.9515 35.7802C30.6009 37.1193 29.5944 37.6419 28.2614 37.2563C27.6211 37.0713 27.0093 36.7874 26.3889 36.5359C25.9417 36.3551 25.5017 36.1574 24.931 35.9116C26.873 40.4627 28.7568 44.8754 30.6718 49.3573C31.3646 48.3261 31.9963 47.3727 32.6422 46.4291C33.1547 45.6805 33.7339 45.4686 34.6098 45.6946C35.6788 45.9701 36.7449 46.254 37.8848 46.5534C35.798 41.604 33.7424 36.7337 31.6883 31.8619L31.6869 31.8648ZM2.1138 46.5421C3.29633 46.237 4.36812 45.9574 5.44134 45.6847C6.25477 45.4785 6.85384 45.6932 7.33082 46.3839C7.80213 47.0648 8.2493 47.764 8.70925 48.4533C8.89948 48.7372 9.09538 49.0169 9.32252 49.346C11.2447 44.8584 13.1341 40.4472 15.0818 35.9003C14.5367 36.1418 14.1534 36.3212 13.763 36.4808C13.0774 36.7591 12.403 37.084 11.6947 37.2846C10.4142 37.6462 9.44886 37.1108 9.05989 35.841C8.8867 35.276 8.82708 34.6728 8.74474 34.0838C8.64111 33.3408 8.56729 32.5936 8.4807 31.8478C8.43101 31.845 8.38132 31.8422 8.33306 31.8393C6.27322 36.7083 4.21481 41.5772 2.1138 46.545V46.5421Z" fill="white"/>
<path d="M31.8713 19.9022C31.8713 26.3786 26.5294 31.6995 20.0163 31.7164C13.506 31.7334 8.10159 26.3461 8.13566 19.874C8.17115 13.375 13.523 8.06683 20.0163 8.09084C26.5436 8.11485 31.8713 13.4231 31.8699 19.9008L31.8713 19.9022ZM19.9879 30.0695C25.6535 30.0751 30.2147 25.5508 30.2189 19.9178C30.2246 14.2776 25.6776 9.73782 20.0191 9.73359C14.3521 9.72935 9.79233 14.255 9.78665 19.8867C9.78239 25.5268 14.3265 30.0652 19.9865 30.0709L19.9879 30.0695Z" fill="white"/>
<path d="M20.002 24.3375C19.2014 24.9138 18.4163 25.483 17.6285 26.0452C16.9371 26.5382 16.375 26.5721 15.8256 26.1681C15.2861 25.7698 15.1328 25.1864 15.3784 24.4222C15.6737 23.5041 15.976 22.5888 16.2827 21.6509C15.4721 21.0605 14.6729 20.4842 13.8779 19.898C13.2504 19.4347 13.0375 18.8753 13.2362 18.2524C13.4265 17.6592 13.9687 17.2976 14.7282 17.2863C15.5246 17.275 16.3224 17.2538 17.1174 17.2947C17.5958 17.3187 17.7917 17.1563 17.9095 16.6972C18.1054 15.9331 18.3823 15.1901 18.635 14.4415C18.8649 13.7592 19.3575 13.3665 19.9779 13.3538C20.6096 13.3411 21.1363 13.7465 21.3705 14.4471C21.6374 15.2466 21.9029 16.0475 22.1456 16.854C22.2407 17.1676 22.3827 17.3046 22.7362 17.2919C23.5496 17.2622 24.3645 17.2792 25.1779 17.2834C26.0282 17.2891 26.5733 17.6238 26.7721 18.2552C26.9765 18.9036 26.748 19.4502 26.0438 19.9658C25.2886 20.5181 24.5291 21.0647 23.7313 21.6424C24.0479 22.6326 24.3815 23.627 24.6824 24.6299C24.9295 25.4576 24.488 26.2684 23.6532 26.3856C23.2785 26.4379 22.8057 26.3009 22.4764 26.0947C21.6289 25.5593 20.8353 24.9378 20.002 24.3375ZM24.5362 19.0533C24.5291 19.0123 24.5234 18.9714 24.5163 18.9318H23.0542C21.2257 18.9318 21.0937 18.8344 20.5344 17.121C20.3768 16.6365 20.205 16.1577 19.9893 15.5291C19.7351 16.3173 19.5378 16.9345 19.3348 17.5518C18.9671 18.6748 18.6066 18.9318 17.3985 18.9318C16.7582 18.9318 16.1166 18.9318 15.4764 18.9318C15.9604 19.4064 16.4601 19.7652 16.9584 20.1254C18.0274 20.8995 18.1324 21.2314 17.7165 22.4984C17.5206 23.0973 17.3289 23.6976 17.0933 24.4321C17.8116 23.9152 18.3979 23.4928 18.9842 23.0705C19.7607 22.5125 20.2292 22.5097 21.0057 23.062C21.6062 23.4886 22.2024 23.9208 22.8057 24.353C22.8327 24.3008 22.8497 24.281 22.8469 24.2697C22.6254 23.5677 22.4011 22.8671 22.1797 22.1636C21.9185 21.3317 22.0775 20.8444 22.7802 20.3302C23.3636 19.9022 23.9499 19.4785 24.5348 19.0533H24.5362Z" fill="white"/>
</g>
<defs>
<clipPath id="clip0_292_3229">
<rect width="40" height="51" fill="white"/>
</clipPath>
</defs>
</svg>