<svg xmlns="http://www.w3.org/2000/svg" width="54" height="54" viewBox="0 0 54 54" fill="none">
<g clip-path="url(#clip0_292_3218)">
<path d="M28.0451 7.26299C28.0451 9.23201 28.0482 11.2026 28.0451 13.1716C28.0435 14.1093 27.6882 14.4604 26.7379 14.4869C20.6025 14.6539 15.6883 19.0007 14.6613 25.0264C13.4606 32.0724 18.4922 38.3586 24.8952 39.3712C31.4423 40.4072 38.0958 36.0245 39.3123 29.186C39.4344 28.4979 39.4907 27.7958 39.5393 27.0984C39.5925 26.3338 39.9667 25.9594 40.7886 25.9578C43.4061 25.9531 46.0221 25.9563 48.6397 25.9563C50.0268 25.9563 51.4123 25.9485 52.7993 25.9594C53.6291 25.9672 54.1316 26.5398 53.9719 27.2606C53.8561 27.7864 53.4897 28.0688 52.8526 28.0751C51.6424 28.0875 50.4307 28.0766 49.2205 28.0813C48.5286 28.0844 48.3924 28.217 48.3313 28.8723C47.8288 34.316 45.5744 38.9234 41.6355 42.6977C38.9804 45.2409 35.8368 46.9462 32.2877 47.9073C31.3546 48.1601 30.7081 47.7606 30.7128 46.9384C30.7159 46.333 31.0822 46.0257 31.627 45.8868C33.4321 45.4281 35.1511 44.7525 36.737 43.7773C42.0739 40.4946 45.23 35.7655 46.1239 29.5557C46.3415 28.047 46.3243 28.0454 44.8026 28.0454C43.9635 28.0454 43.1228 28.0579 42.2836 28.0407C41.8015 28.0298 41.5807 28.228 41.5244 28.7116C40.7604 35.2335 35.7209 40.4603 29.2177 41.4869C29.1018 41.5056 28.9844 41.5025 28.867 41.515C28.1359 41.5977 28.0482 41.6929 28.0482 42.4246C28.0482 45.8571 28.0498 49.2897 28.0467 52.7222C28.0467 53.6896 27.3563 54.2435 26.5939 53.8986C26.1305 53.688 25.9567 53.2995 25.9582 52.808C25.9614 51.6581 25.941 50.5067 25.9676 49.3568C25.9802 48.8107 25.8158 48.5501 25.2256 48.4908C21.0315 48.0711 17.2445 46.6029 13.9287 43.9895C10.0414 40.9268 7.51781 36.9747 6.30139 32.1879C6.11039 31.4358 6.3734 30.8991 6.98396 30.7353C7.63679 30.559 8.12367 30.9147 8.33345 31.751C9.36044 35.8513 11.4943 39.2651 14.7412 41.969C17.8049 44.5216 21.3415 45.9726 25.3132 46.3689C25.7297 46.411 25.9535 46.2456 25.9551 45.8306C25.9614 44.6027 25.9489 43.3732 25.9614 42.1453C25.9661 41.6523 25.6248 41.5727 25.2678 41.5322C23.5849 41.3402 21.9849 40.8644 20.4851 40.0889C15.8934 37.7111 13.2633 33.9244 12.5056 28.8365C12.4164 28.2342 12.1659 28.0454 11.5992 28.047C8.14246 28.0595 4.68575 28.0532 1.22905 28.0517C0.5183 28.0517 0.134744 27.7739 0.0251564 27.1998C-0.104783 26.5133 0.369574 25.9594 1.12729 25.9531C2.37659 25.9407 3.62745 25.9344 4.87675 25.9563C5.43878 25.9672 5.66578 25.7597 5.71744 25.1839C6.21059 19.5577 8.48374 14.774 12.6121 10.8999C15.1279 8.53771 18.0711 6.90569 21.3853 5.94458C22.0945 5.73863 22.6675 5.99763 22.8585 6.59208C23.062 7.22086 22.6957 7.80127 21.9223 8.01502C19.4284 8.70621 17.1584 9.84831 15.1514 11.4725C10.8837 14.9253 8.43678 19.3798 7.87788 24.85C7.86222 25.0045 7.82935 25.159 7.81526 25.3134C7.77612 25.716 7.93894 25.9547 8.36633 25.9547C9.51856 25.9563 10.6708 25.9531 11.823 25.9563C12.2739 25.9563 12.4195 25.6879 12.4743 25.2932C13.2179 19.9446 16.0437 16.0908 20.8796 13.7099C22.2323 13.0437 23.6757 12.6287 25.1833 12.4882C25.7579 12.4352 25.9739 12.1902 25.9708 11.588C25.9457 8.13672 25.9551 4.68391 25.9614 1.23265C25.9629 0.288703 26.7003 -0.254261 27.4549 0.118637C27.912 0.344872 28.0498 0.752095 28.0498 1.23577C28.0451 3.2438 28.0482 5.2534 28.0482 7.26143L28.0451 7.26299Z" fill="#766037"/>
<path d="M35.1369 15.0377C34.5967 12.9048 35.6316 11.4834 37.1454 10.1245C39.0601 8.40663 40.815 6.51093 42.6358 4.69169C42.9818 4.34687 43.3497 4.06915 43.8757 4.25014C44.4095 4.43425 44.6193 4.83679 44.6177 5.37976C44.6146 6.52965 44.6162 7.68111 44.6177 8.83101C44.6209 9.62986 44.7414 9.75468 45.5257 9.7578C46.6388 9.76092 47.7519 9.76404 48.865 9.7578C49.4145 9.75468 49.8701 9.89042 50.0877 10.4552C50.2975 11.0013 50.0267 11.357 49.6509 11.7268C47.3152 14.0266 44.9888 16.3358 42.6765 18.659C42.2898 19.0475 41.8765 19.23 41.3301 19.2222C39.9634 19.2035 38.5967 19.2269 37.23 19.2097C36.7681 19.2035 36.4253 19.3439 36.095 19.6794C33.396 22.416 30.6813 25.1371 27.9651 27.8566C27.7757 28.0454 27.5612 28.2436 27.3186 28.3387C26.874 28.5135 26.4716 28.3684 26.1742 27.9955C25.872 27.6179 25.8611 27.2029 26.1131 26.8003C26.2243 26.6225 26.3933 26.4774 26.5452 26.326C29.2927 23.555 32.0465 20.7903 34.7799 18.0052C34.9725 17.8087 35.1024 17.4794 35.1212 17.2017C35.1682 16.484 35.1369 15.7601 35.1369 15.0392V15.0377ZM39.4186 17.0972C39.907 17.0972 40.3955 17.1175 40.8824 17.0878C41.0749 17.0753 41.3098 16.9989 41.4428 16.8694C42.808 15.5307 44.1637 14.1826 45.4976 12.8128C45.6572 12.6489 45.8013 12.2948 45.7277 12.1247C45.6526 11.9515 45.3097 11.8267 45.0702 11.8033C44.5864 11.7549 44.0948 11.7955 43.608 11.7877C42.88 11.7768 42.487 11.3898 42.473 10.6721C42.4636 10.2243 42.5152 9.76872 42.4542 9.32873C42.4166 9.05725 42.2726 8.74208 42.069 8.57669C41.9782 8.50336 41.5696 8.69527 41.4006 8.86222C40.0855 10.1681 38.7877 11.4912 37.5024 12.8268C37.3443 12.9922 37.2143 13.2574 37.2081 13.4821C37.1767 14.476 37.2002 15.4698 37.1924 16.4653C37.1877 16.9146 37.41 17.1019 37.839 17.0987C38.3666 17.0956 38.8926 17.0987 39.4202 17.0987L39.4186 17.0972Z" fill="#766037"/>
<path d="M26.9992 35.6749C22.5499 35.6843 18.7848 32.3095 18.348 27.9205C17.8987 23.413 20.9985 19.2893 25.4462 18.4889C25.8485 18.4171 26.2587 18.3734 26.6657 18.3578C27.4407 18.3266 27.9103 18.6948 27.9401 19.322C27.973 19.9945 27.5252 20.408 26.7393 20.4423C24.8951 20.5219 23.3452 21.2489 22.1069 22.611C20.2627 24.6393 19.8964 27.6288 21.1707 30.0627C22.4216 32.453 25.1691 33.8947 27.8007 33.5421C30.6297 33.1629 32.6899 31.2906 33.3271 28.4947C33.4429 27.9845 33.4993 27.4587 33.5603 26.9376C33.6355 26.2947 34.0723 25.8704 34.6687 25.8984C35.2699 25.9265 35.6613 26.3712 35.6723 27.0343C35.7411 31.7447 31.8054 35.6671 26.9992 35.6765V35.6749Z" fill="#766037"/>
</g>
<defs>
<clipPath id="clip0_292_3218">
<rect width="54" height="54" fill="white"/>
</clipPath>
</defs>
</svg>