<svg width="35" height="47" viewBox="0 0 35 47" fill="none" xmlns="http://www.w3.org/2000/svg">
<g clip-path="url(#clip0_292_3238)">
<path d="M10.7944 1.38683C10.8726 0.462276 11.3478 0 12.2202 0C15.8472 0 19.4742 0 23.1012 0C24.0169 0 24.1623 0.14748 24.1865 1.09445C24.1891 1.17208 24.1967 1.2497 24.2069 1.38683C24.4123 1.38683 24.5972 1.38683 24.7834 1.38683C27.2499 1.38683 29.7151 1.38036 32.1815 1.38941C33.5997 1.39459 34.5779 2.09965 34.9069 3.34934C34.9834 3.64042 34.9975 3.95478 34.9987 4.25751C35.0026 17.2487 35.0038 30.2398 35 43.231C35 45.0188 33.9351 46.0848 32.1739 46.0848C22.4062 46.0848 12.6385 46.0719 2.86949 46.1003C1.37736 46.1042 -0.00126522 45.0615 0.00256075 43.209C0.0280672 30.2333 0.0280672 17.259 1.01059e-05 4.28338C-0.00381587 2.67275 1.07893 1.36095 2.85674 1.38036C5.30663 1.40623 7.75653 1.38683 10.2064 1.38683C10.3939 1.38683 10.5827 1.38683 10.7944 1.38683ZM5.58593 40.4431H29.4281V7.05445H5.58593V40.4431ZM10.8033 2.78918C8.1098 2.78918 5.46988 2.78788 2.82868 2.78918C1.80332 2.78918 1.36843 3.24455 1.36843 4.30408C1.36843 17.2642 1.36843 30.223 1.36843 43.1831C1.36843 44.2452 1.82117 44.7096 2.88479 44.7096C12.6372 44.7122 22.3909 44.7122 32.1433 44.7096C33.1941 44.7096 33.6443 44.2349 33.6443 43.165C33.6443 30.2049 33.6443 17.2461 33.6443 4.28597C33.6443 3.23938 33.2018 2.79047 32.165 2.78918C29.6666 2.78659 27.1695 2.78918 24.6712 2.78918C24.5181 2.78918 24.3664 2.8047 24.2159 2.81376V5.62622C24.4199 5.62622 24.5921 5.62622 24.7643 5.62622C26.4668 5.62622 28.1694 5.62493 29.8719 5.62622C30.604 5.62622 30.8386 5.86426 30.8386 6.61718C30.8399 18.0275 30.8399 29.4377 30.8386 40.848C30.8386 41.6216 30.632 41.8273 29.8821 41.8273C21.6244 41.8273 13.368 41.8273 5.11023 41.8273C4.3884 41.8273 4.17415 41.6164 4.17415 40.8765C4.17287 29.4507 4.17287 18.0236 4.17415 6.59778C4.17415 5.85779 4.41391 5.62752 5.15997 5.62622C6.86253 5.62493 8.56509 5.62622 10.2676 5.62622C10.4385 5.62622 10.6082 5.62622 10.8033 5.62622V2.78918ZM12.2023 5.59776H22.7952V1.40364H12.2023V5.59647V5.59776Z" fill="white"/>
<path d="M21.8412 18.9641C20.5531 18.9641 19.265 18.9667 17.977 18.9641C17.4171 18.9628 17.1251 18.7273 17.1149 18.2875C17.1034 17.8334 17.375 17.5786 17.94 17.5773C20.5314 17.5695 23.1242 17.5695 25.7156 17.5773C26.2666 17.5786 26.5727 17.8489 26.5676 18.2746C26.5625 18.6963 26.2385 18.9628 25.7054 18.9641C24.4174 18.968 23.1293 18.9654 21.8412 18.9641Z" fill="white"/>
<path d="M21.8501 25.1841C23.17 25.1841 24.49 25.1764 25.81 25.188C26.2678 25.1919 26.5701 25.4933 26.5675 25.8866C26.5662 26.285 26.2806 26.5425 25.801 26.5722C25.6748 26.58 25.5473 26.5748 25.4197 26.5748C23.7184 26.5748 22.0172 26.5748 20.3159 26.5748C19.5366 26.5748 18.7574 26.58 17.9782 26.5722C17.4005 26.5671 17.1225 26.3433 17.1135 25.9021C17.1033 25.4416 17.4069 25.1854 17.9871 25.1841C19.2752 25.1802 20.5633 25.1828 21.8514 25.1841H21.8501Z" fill="white"/>
<path d="M21.8565 9.97041C23.1446 9.97041 24.4326 9.96911 25.7194 9.97041C26.2564 9.97041 26.5752 10.233 26.5675 10.6586C26.5612 11.0817 26.2474 11.3236 25.699 11.3236C23.1242 11.3236 20.548 11.3236 17.9719 11.3236C17.3878 11.3236 17.1225 11.1153 17.1136 10.6612C17.1059 10.189 17.3801 9.97041 17.9923 9.96911C19.2803 9.96782 20.5684 9.96911 21.8552 9.96911L21.8565 9.97041Z" fill="white"/>
<path d="M21.8017 34.1778C20.5136 34.1778 19.2255 34.1791 17.9387 34.1778C17.3725 34.1778 17.1034 33.9462 17.1149 33.4818C17.1251 33.0445 17.3916 32.8246 17.9311 32.8246C20.5378 32.822 23.1459 32.822 25.7526 32.8246C26.2551 32.8246 26.565 33.0885 26.5676 33.4986C26.5701 33.9113 26.2628 34.1765 25.7603 34.1765C24.4403 34.1791 23.1216 34.1765 21.8017 34.1765V34.1778Z" fill="white"/>
<path d="M10.8555 13.0287C11.7393 12.1308 12.5683 11.2887 13.3985 10.4491C13.5222 10.3249 13.6408 10.1877 13.7837 10.092C14.0859 9.88889 14.3907 9.91606 14.6445 10.1826C14.883 10.4322 14.9047 10.7259 14.7223 11.0209C14.656 11.1282 14.5641 11.2214 14.4749 11.3119C13.5005 12.3029 12.5249 13.2952 11.5467 14.2822C11.0417 14.7919 10.7305 14.7868 10.2229 14.2745C9.72812 13.7751 9.23074 13.277 8.74229 12.7712C8.375 12.3896 8.34822 12.0261 8.64537 11.7169C8.93359 11.4167 9.33532 11.4348 9.69114 11.7945C10.0827 12.1891 10.4538 12.603 10.8542 13.0287H10.8555Z" fill="white"/>
<path d="M10.862 35.8841C11.6743 35.0575 12.4344 34.2826 13.1958 33.5089C13.308 33.3951 13.419 33.28 13.5325 33.1674C13.947 32.7573 14.341 32.7107 14.6471 33.0329C14.9417 33.3433 14.8958 33.7289 14.5107 34.1299C14.2454 34.4068 13.9725 34.6758 13.7034 34.9501C12.9739 35.6901 12.2482 36.4339 11.5149 37.1688C11.0494 37.6358 10.7242 37.6306 10.26 37.1649C9.77539 36.6772 9.29332 36.1881 8.81252 35.6966C8.38273 35.2567 8.333 34.9009 8.64545 34.5736C8.96046 34.2437 9.35708 34.2994 9.79324 34.7483C10.1478 35.1131 10.4896 35.4883 10.862 35.8854V35.8841Z" fill="white"/>
<path d="M10.8594 28.2708C11.6998 27.417 12.4828 26.6214 13.2659 25.8245C13.3781 25.7106 13.4878 25.5929 13.6026 25.4829C13.9839 25.1181 14.3397 25.0948 14.6432 25.4105C14.9302 25.7093 14.897 26.1 14.5425 26.4726C14.2555 26.774 13.9597 27.0664 13.6676 27.3627C12.9496 28.0923 12.2329 28.8232 11.511 29.549C11.0354 30.0276 10.7306 30.0276 10.2587 29.5542C9.74983 29.0444 9.24352 28.5334 8.7436 28.016C8.3763 27.6356 8.34569 27.2656 8.63647 26.9564C8.94255 26.6304 9.31749 26.655 9.71284 27.0535C10.0942 27.4377 10.4564 27.8413 10.8594 28.2708Z" fill="white"/>
<path d="M10.8607 20.651C11.8057 19.6885 12.6882 18.7856 13.5771 17.889C13.9431 17.519 14.3895 17.488 14.6599 17.8114C14.9086 18.1102 14.9239 18.4453 14.6522 18.726C13.5618 19.8515 12.4625 20.9667 11.3542 22.0754C11.0634 22.3665 10.7102 22.3639 10.4169 22.0793C9.82001 21.5023 9.23591 20.9085 8.66329 20.3056C8.35976 19.9874 8.37379 19.5941 8.65564 19.3173C8.92856 19.0495 9.32136 19.052 9.63381 19.3612C10.0419 19.7662 10.4283 20.1931 10.8619 20.6497L10.8607 20.651Z" fill="white"/>
<path d="M19.8339 13.277C20.4537 13.277 21.0735 13.2706 21.6933 13.2796C22.1984 13.2861 22.4955 13.55 22.5006 13.9705C22.5057 14.3909 22.22 14.6678 21.7048 14.6729C20.4333 14.6872 19.1631 14.6885 17.8916 14.6729C17.3687 14.6665 17.1047 14.3948 17.1149 13.9575C17.1251 13.5306 17.4095 13.2861 17.9286 13.2796C18.5637 13.2719 19.2001 13.2783 19.8352 13.2783L19.8339 13.277Z" fill="white"/>
<path d="M19.7956 36.1299C20.4308 36.1299 21.0671 36.1222 21.7023 36.1325C22.2022 36.1403 22.5019 36.412 22.5006 36.8324C22.5006 37.236 22.2264 37.5168 21.7431 37.5232C20.4563 37.54 19.1695 37.54 17.8827 37.5232C17.3661 37.5168 17.1009 37.2386 17.1149 36.8001C17.1289 36.3744 17.4133 36.1364 17.9362 36.1299C18.556 36.1235 19.1758 36.1286 19.7956 36.1286V36.1299Z" fill="white"/>
<path d="M19.7752 22.272C19.1401 22.272 18.505 22.2785 17.8699 22.2694C17.3751 22.263 17.1187 22.0249 17.1149 21.5993C17.1111 21.1737 17.3751 20.9175 17.8559 20.9149C19.158 20.9085 20.4614 20.9085 21.7635 20.9149C22.2353 20.9175 22.5083 21.1879 22.4993 21.6084C22.4904 22.0081 22.229 22.2591 21.7775 22.2668C21.1105 22.2772 20.4435 22.2694 19.7765 22.2707L19.7752 22.272Z" fill="white"/>
<path d="M19.8007 28.5309C20.4524 28.5309 21.1029 28.5205 21.7545 28.5347C22.2353 28.5451 22.5057 28.809 22.4993 29.223C22.493 29.6305 22.2086 29.9035 21.738 29.9073C20.4512 29.9164 19.1644 29.9164 17.8788 29.9073C17.4031 29.9035 17.1251 29.6382 17.1162 29.2294C17.1073 28.7857 17.3674 28.5425 17.8967 28.5334C18.5318 28.5231 19.1669 28.5309 19.802 28.5321L19.8007 28.5309Z" fill="white"/>
<path d="M17.5319 2.81377C18.4846 2.81377 19.436 2.81247 20.3886 2.81377C20.9689 2.81506 21.2979 3.05698 21.3145 3.48648C21.3311 3.91987 21.0033 4.20059 20.432 4.20189C18.4795 4.20836 16.5282 4.20836 14.5757 4.20189C14.0044 4.1993 13.6779 3.91598 13.6983 3.48131C13.7174 3.06345 14.0388 2.81506 14.5808 2.81377C15.5641 2.80989 16.5486 2.81377 17.5332 2.81377H17.5319Z" fill="white"/>
</g>
<defs>
<clipPath id="clip0_292_3238">
<rect width="35" height="46.1003" fill="white"/>
</clipPath>
</defs>
</svg>
