<svg width="35" height="53" viewBox="0 0 35 53" fill="none" xmlns="http://www.w3.org/2000/svg">
<g clip-path="url(#clip0_351_1867)">
<path d="M17.5 39.0313L17.5314 38.9968" stroke="#766037" stroke-width="3" stroke-linecap="round" stroke-linejoin="round"/>
<path d="M1.875 49.625V3.375C1.875 2.87772 2.07254 2.40081 2.42417 2.04917C2.77581 1.69754 3.25272 1.5 3.75 1.5H31.25C31.4962 1.5 31.74 1.5485 31.9675 1.64273C32.195 1.73695 32.4017 1.87506 32.5758 2.04917C32.7499 2.22328 32.888 2.42998 32.9823 2.65747C33.0765 2.88495 33.125 3.12877 33.125 3.375V49.625C33.125 49.8712 33.0765 50.115 32.9823 50.3425C32.888 50.57 32.7499 50.7767 32.5758 50.9508C32.4017 51.1249 32.195 51.263 31.9675 51.3573C31.74 51.4515 31.4962 51.5 31.25 51.5H3.75C3.25272 51.5 2.77581 51.3025 2.42417 50.9508C2.07254 50.5992 1.875 50.1223 1.875 49.625Z" stroke="#766037" stroke-width="3"/>
</g>
<defs>
<clipPath id="clip0_351_1867">
<rect width="35" height="53" fill="white"/>
</clipPath>
</defs>
</svg>