<svg width="38" height="38" viewBox="0 0 38 38" fill="none" xmlns="http://www.w3.org/2000/svg">
<path d="M9.04436 3.66819C8.90622 3.4905 8.73186 3.34423 8.53286 3.23911C8.33385 3.13398 8.11475 3.0724 7.89012 3.05846C7.66548 3.04451 7.44045 3.07853 7.22997 3.15824C7.01949 3.23795 6.82838 3.36153 6.66933 3.52078L4.24985 5.94262C3.11966 7.07515 2.70316 8.67801 3.19688 10.0843C5.24605 15.9051 8.5794 21.1899 12.9497 25.5467C17.3065 29.9169 22.5912 33.2503 28.4119 35.2995C29.8182 35.7933 31.4211 35.3768 32.5536 34.2466L34.9731 31.8271C35.1323 31.668 35.2559 31.4769 35.3356 31.2664C35.4153 31.0559 35.4493 30.8309 35.4354 30.6063C35.4215 30.3816 35.3599 30.1625 35.2548 29.9635C35.1496 29.7645 35.0034 29.5902 34.8257 29.452L29.4275 25.2542C29.2376 25.1069 29.0168 25.0047 28.7817 24.9553C28.5466 24.9058 28.3034 24.9104 28.0703 24.9687L22.9459 26.2486C22.2619 26.4196 21.5452 26.4105 20.8658 26.2223C20.1863 26.0341 19.5672 25.6731 19.0686 25.1746L13.3217 19.4254C12.8228 18.927 12.4614 18.308 12.2728 17.6285C12.0842 16.949 12.0747 16.2323 12.2454 15.5481L13.5277 10.4236C13.5859 10.1905 13.5905 9.94728 13.5411 9.71218C13.4916 9.47708 13.3894 9.25628 13.2422 9.06644L9.04436 3.66819ZM4.90269 1.75646C5.31216 1.34685 5.80409 1.02904 6.34581 0.824136C6.88753 0.619229 7.46664 0.531913 8.0447 0.567986C8.62275 0.60406 9.18651 0.762696 9.69856 1.03336C10.2106 1.30403 10.6592 1.68053 11.0146 2.13787L15.2124 7.53378C15.9822 8.52357 16.2537 9.81288 15.9495 11.0297L14.6695 16.1541C14.6034 16.4195 14.6069 16.6976 14.6799 16.9612C14.7529 17.2248 14.8928 17.4651 15.086 17.6587L20.8352 23.4079C21.0291 23.6016 21.2698 23.7417 21.5338 23.8147C21.7979 23.8877 22.0764 23.8911 22.3422 23.8245L27.4643 22.5445C28.0647 22.3944 28.6915 22.3827 29.2971 22.5104C29.9027 22.6381 30.4714 22.9018 30.9601 23.2816L36.356 27.4794C38.2958 28.9887 38.4736 31.8551 36.7374 33.589L34.3179 36.0085C32.5864 37.7401 29.9984 38.5006 27.5859 37.6512C21.4113 35.4786 15.805 31.9437 11.1831 27.3086C6.54833 22.6873 3.01345 17.0818 0.840575 10.908C-0.00647825 8.49783 0.753998 5.90752 2.48554 4.17596L4.90503 1.75646H4.90269Z" fill="#766037"/>
</svg>