<svg xmlns="http://www.w3.org/2000/svg" width="44" height="44" viewBox="0 0 44 44" fill="none">
<g clip-path="url(#clip0_292_3256)">
<path d="M0 19.8509C0.0298539 19.79 0.0700418 19.7326 0.0884134 19.6695C0.49833 18.2631 1.43873 17.4434 2.87171 17.2115C4.11983 17.0094 5.42881 17.6753 6.11545 18.8658C7.86649 21.899 9.60605 24.9401 11.333 27.9871C11.519 28.3154 11.713 28.4382 12.0966 28.4359C14.9901 28.4176 17.8825 28.4256 20.776 28.4256C20.9333 28.4256 21.0918 28.4222 21.2479 28.4336C21.7416 28.4704 22.0861 28.8286 22.0804 29.2947C22.0758 29.7309 21.7279 30.1041 21.2755 30.1534C21.1618 30.166 21.047 30.1592 20.9321 30.1592C17.7378 30.1592 14.5446 30.1511 11.3502 30.1672C10.7922 30.1706 10.4534 29.956 10.1836 29.4784C8.36482 26.2707 6.52766 23.0723 4.69509 19.8715C4.29896 19.1792 3.72714 18.8498 3.09791 18.9382C1.95887 19.0989 1.38706 20.2435 1.95658 21.2618C2.76608 22.7083 3.59739 24.1445 4.42182 25.583C5.68486 27.7919 6.96399 29.9927 8.20522 32.213C8.60939 32.9351 9.17088 33.2405 9.98152 33.2405C19.9929 33.2325 30.0043 33.2359 40.0157 33.2348C40.9055 33.2348 41.4498 32.9202 41.715 32.2601C42.1307 31.228 41.3924 30.1615 40.2465 30.1592C37.0383 30.1534 33.8302 30.1569 30.622 30.1569C30.0915 30.1569 29.5622 30.1626 29.0317 30.1546C28.4507 30.1465 28.0844 29.7964 28.0913 29.2706C28.0971 28.7631 28.445 28.4268 29.0191 28.4268C32.7864 28.421 36.5526 28.4164 40.3199 28.4302C41.6427 28.4348 42.6279 29.0674 43.2169 30.2361C43.8094 31.4094 43.6705 32.5574 42.9287 33.6435C42.8345 33.7812 42.7863 33.9764 42.784 34.1463C42.7714 35.206 42.7806 36.2656 42.7771 37.3253C42.7748 37.9004 42.6554 38.0922 42.1066 38.4136C42.1525 38.533 42.1973 38.6616 42.2513 38.7867C42.7921 40.0622 43.3375 41.3354 43.8748 42.612C44.2101 43.4088 43.8301 43.9874 42.9677 43.9897C41.7219 43.9943 40.4761 43.9839 39.2291 43.9943C38.7652 43.9989 38.4495 43.8152 38.2187 43.4099C37.3346 41.8577 36.4297 40.3159 35.5456 38.7638C35.4044 38.5169 35.2609 38.3987 34.9508 38.3987C27.9754 38.409 21.001 38.409 14.0256 38.3987C13.7156 38.3987 13.5709 38.5181 13.4308 38.7638C12.5604 40.2918 11.6683 41.8072 10.8037 43.3387C10.5419 43.8025 10.1951 44.008 9.65887 43.9977C8.44175 43.9759 7.22463 43.9943 6.00637 43.9897C5.14175 43.9862 4.76054 43.4076 5.09697 42.6109C5.68601 41.2194 6.28079 39.8303 6.88591 38.4102C6.29457 38.1806 6.1763 37.7202 6.19008 37.1588C6.21305 36.2427 6.20846 35.3254 6.19008 34.4092C6.1809 33.9133 6.29457 33.5034 6.7952 33.2508C6.71023 33.0993 6.63674 32.965 6.56096 32.833C4.57338 29.359 2.58236 25.8861 0.605115 22.4064C0.367432 21.9805 0.202088 21.5075 0 21.054C0 20.6533 0 20.2515 0 19.8509ZM7.9905 36.6468H40.9928V34.9947H7.9905V36.6468ZM41.7437 42.2492C41.7575 42.1597 41.7724 42.1287 41.7633 42.1069C41.273 40.9393 40.7827 39.7706 40.282 38.6076C40.2465 38.5238 40.1293 38.4194 40.049 38.4182C39.1729 38.4044 38.2956 38.4102 37.3483 38.4102C38.0866 39.6879 38.7802 40.8968 39.4863 42.0977C39.5323 42.1758 39.6677 42.2412 39.763 42.2435C40.4187 42.2561 41.0755 42.2504 41.7449 42.2504L41.7437 42.2492ZM7.15115 42.2492C7.82516 42.2492 8.40845 42.232 8.98946 42.2561C9.30063 42.2699 9.47975 42.1712 9.63361 41.8945C10.2112 40.8578 10.8151 39.836 11.4076 38.8085C11.4754 38.6914 11.5305 38.5663 11.6097 38.4079C10.7095 38.4079 9.8644 38.4021 9.02161 38.4148C8.91827 38.4159 8.75866 38.4894 8.72307 38.572C8.20292 39.7614 7.7 40.9577 7.15115 42.2504V42.2492Z" fill="white"/>
<path d="M33.8635 0C34.588 0.143506 35.3344 0.219277 36.0348 0.44085C40.3062 1.7898 43.0091 4.64499 43.814 9.05923C44.891 14.9636 41.1696 20.4501 35.2919 21.6946C29.3039 22.9632 23.6362 19.1356 22.3617 13.3644C21.0171 7.27057 24.8924 1.41669 31.0124 0.200908C31.4166 0.120545 31.8254 0.0665867 32.2307 0C32.775 0 33.3192 0 33.8635 0ZM33.0195 20.1976C38.1108 20.2033 42.2685 16.0749 42.2857 10.9983C42.3029 5.92851 38.151 1.76455 33.0655 1.75307C27.9892 1.74159 23.8234 5.89636 23.8223 10.9742C23.82 16.0256 27.9742 20.193 33.0195 20.1976Z" fill="white"/>
<path d="M24.2265 29.2901C24.2242 28.7873 24.5858 28.4279 25.0899 28.4314C25.5641 28.4348 25.9373 28.7953 25.9499 29.2614C25.9637 29.7287 25.5641 30.1454 25.0945 30.1546C24.6146 30.1638 24.2276 29.778 24.2265 29.289V29.2901Z" fill="white"/>
<path d="M32.1721 11.035C32.1721 9.56437 32.171 8.13506 32.1744 6.70574C32.1744 6.5209 32.179 6.33148 32.2204 6.15238C32.3134 5.74253 32.5786 5.51177 33.0034 5.48652C33.4306 5.46126 33.7532 5.68168 33.8738 6.09613C33.9209 6.258 33.9324 6.43365 33.9335 6.60356C33.9381 7.9353 33.9358 9.26703 33.9358 10.5976V11.0247C34.8039 10.8066 35.5445 9.89271 35.5881 8.9605C35.6237 8.17409 35.6053 7.38653 35.6122 6.59897C35.6191 5.77812 35.9096 5.48077 36.7203 5.47159C37.0211 5.46815 37.3219 5.46241 37.6216 5.47848C38.167 5.50833 38.5011 5.83782 38.5046 6.32803C38.5092 6.8148 38.1773 7.15463 37.6423 7.21088C37.5711 7.21892 37.4999 7.22121 37.408 7.22695C37.3759 7.89741 37.3931 8.57131 37.3024 9.23029C37.0532 11.0327 36.0072 12.2049 34.3021 12.7846C34.0231 12.8799 33.9105 12.9798 33.9278 13.2806C33.9542 13.749 33.9347 14.2186 33.9347 14.7007C34.0989 14.7237 34.2252 14.7386 34.3503 14.7581C34.8062 14.8305 35.1208 15.1634 35.1357 15.5859C35.1506 16.0118 34.8142 16.4492 34.3584 16.4687C33.4869 16.5043 32.6108 16.5043 31.7393 16.4676C31.2972 16.4492 30.9814 16.0394 30.9757 15.6192C30.9688 15.1841 31.2949 14.8282 31.7691 14.7558C31.8805 14.7386 31.9942 14.7294 32.1698 14.7088C32.1698 14.152 32.1802 13.6009 32.1584 13.0498C32.1549 12.9683 32.0091 12.857 31.908 12.8214C29.7838 12.074 28.7389 10.6091 28.7355 8.35663C28.7355 7.98811 28.7355 7.61958 28.7355 7.23614C28.5793 7.22236 28.4668 7.22121 28.3566 7.2017C27.8996 7.12363 27.5792 6.74248 27.5953 6.30392C27.6114 5.85274 27.9352 5.51636 28.422 5.48422C28.7929 5.46011 29.1661 5.46126 29.5381 5.47389C30.1581 5.4957 30.4842 5.82289 30.4946 6.44399C30.5084 7.26025 30.4854 8.07651 30.5095 8.89162C30.5371 9.83646 31.2409 10.748 32.1733 11.0327L32.1721 11.035Z" fill="white"/>
</g>
<defs>
<clipPath id="clip0_292_3256">
<rect width="44" height="44" fill="white"/>
</clipPath>
</defs>
</svg>