<svg xmlns="http://www.w3.org/2000/svg" width="56" height="35" viewBox="0 0 56 35" fill="none">
<g clip-path="url(#clip0_292_3210)">
<path d="M27.65 7.40857C32.5041 7.48396 36.8915 8.63511 41.0838 10.5793C46.2354 12.9672 50.7919 16.2249 54.8369 20.2148C55.6444 21.0107 55.6473 21.4196 54.8326 22.2126C49.4137 27.4842 43.2667 31.5581 35.9871 33.759C33.2668 34.581 30.4787 35.0363 27.6414 35.0015C23.4548 34.9507 19.456 33.9547 15.6176 32.3005C10.0239 29.8894 5.12365 26.4461 0.789705 22.1691C0.02982 21.4196 0.0283754 21.0035 0.795484 20.2539C6.11034 15.0621 12.1461 11.0389 19.2682 8.79314C22.065 7.91166 24.9356 7.46946 27.65 7.41147V7.40857ZM27.8379 9.45861C21.6706 9.32233 16.1723 14.5083 16.1189 21.0803C16.0625 27.8785 21.6374 32.9703 27.8003 32.9906C34.047 33.0109 39.5207 27.8568 39.5482 21.2587C39.5756 14.5707 34.0195 9.31943 27.8379 9.46006V9.45861ZM37.3798 11.2477C40.0784 14.0357 41.5302 17.3485 41.5245 21.2195C41.5201 25.0978 40.0581 28.4164 37.2584 31.2073C41.1474 30.2867 50.7254 24.1583 52.9935 21.1586C48.4068 16.8744 43.31 13.405 37.3798 11.2477ZM18.4144 31.2754C12.7312 25.7502 12.7658 16.6265 18.4173 11.1447C12.3599 13.3978 7.26028 16.8744 2.6143 21.2108C7.26028 25.5472 12.3613 29.0224 18.4144 31.2754Z" fill="#766037"/>
<path d="M37.842 2.60681C38.6279 2.72425 39.1104 3.44046 38.7695 4.08852C38.1656 5.23533 37.5098 6.35604 36.8395 7.46514C36.5765 7.90154 35.9712 7.98563 35.5465 7.72611C35.1073 7.4579 34.9253 6.92726 35.1839 6.45607C35.7892 5.34986 36.4089 4.2509 37.072 3.17949C37.2295 2.92577 37.5791 2.79384 37.8406 2.60681H37.842Z" fill="#766037"/>
<path d="M17.8624 2.60535C18.1253 2.81847 18.4677 2.9823 18.6367 3.25486C19.2666 4.26539 19.8502 5.3078 20.4309 6.34877C20.7415 6.9055 20.5797 7.46803 20.0698 7.75074C19.5988 8.01171 19.0383 7.85223 18.7306 7.33175C18.1253 6.30528 17.5229 5.27591 16.9493 4.23059C16.5463 3.49698 16.9869 2.71698 17.8638 2.6068L17.8624 2.60535Z" fill="#766037"/>
<path d="M28.8029 2.86776C28.8029 3.44768 28.8101 4.02761 28.8015 4.60753C28.7928 5.23965 28.3811 5.66735 27.8119 5.65575C27.2644 5.6456 26.8656 5.22661 26.8613 4.62348C26.8526 3.40999 26.8512 2.19504 26.8613 0.981545C26.8671 0.382771 27.2788 -0.00867889 27.848 2.00081e-05C28.3926 0.00726909 28.7856 0.39292 28.7986 0.965597C28.813 1.59917 28.8015 2.23419 28.8029 2.86776Z" fill="#766037"/>
<path d="M29.0324 21.2964C30.2835 20.038 31.4724 18.8419 32.6874 17.6197C32.4577 17.6197 32.2135 17.6327 31.9708 17.6168C31.4204 17.5805 31.0477 17.1601 31.0607 16.6077C31.0737 16.0785 31.4349 15.6798 31.9766 15.6697C33.0746 15.6508 34.1739 15.6537 35.2733 15.6668C35.7977 15.674 36.1574 16.0104 36.169 16.5482C36.1921 17.6704 36.1863 18.794 36.1589 19.9162C36.1459 20.4381 35.7529 20.7861 35.2502 20.8093C34.7402 20.8325 34.2953 20.4758 34.2303 19.9597C34.1985 19.7117 34.2245 19.4551 34.2245 19.0651C34.0064 19.2667 33.8677 19.387 33.7391 19.5175C32.5155 20.7455 31.2933 21.9778 30.0697 23.2058C29.3344 23.9438 28.9024 23.9394 28.157 23.1884C27.5473 22.5751 26.942 21.9575 26.2876 21.2935C25.9293 21.6632 25.6101 21.9996 25.2836 22.3287C23.9473 23.6755 22.6124 25.0224 21.2703 26.3621C20.7676 26.8637 20.1608 26.897 19.7491 26.465C19.3576 26.0532 19.3981 25.4545 19.8748 24.9717C21.7442 23.0855 23.6164 21.2022 25.493 19.3232C26.0449 18.7708 26.539 18.7679 27.0894 19.3145C27.7554 19.9756 28.404 20.6541 29.0324 21.2964Z" fill="#766037"/>
</g>
<defs>
<clipPath id="clip0_292_3210">
<rect width="55.2231" height="35" fill="white" transform="translate(0.218994)"/>
</clipPath>
</defs>
</svg>